<svg width="144" height="38" viewBox="0 0 144 38" fill="none" xmlns="http://www.w3.org/2000/svg">
<g clip-path="url(#clip0_218_30)">
<path d="M15.8454 0H0V37.9167L15.8454 0Z" fill="white" fill-opacity="0.75"/>
<path d="M26.9941 0H42.8189V37.9167L26.9941 0Z" fill="white" fill-opacity="0.75"/>
<path d="M21.4197 13.9746L31.505 37.9165H24.8882L21.8739 30.294H14.4932L21.4197 13.9746Z" fill="white" fill-opacity="0.75"/>
<path d="M68.6694 24.1126L70.5378 29.4732C70.5997 29.6075 70.6926 29.6695 70.8578 29.6695H74.4501C74.6463 29.6695 74.6772 29.5765 74.6462 29.3803L67.2242 8.75386C67.1932 8.5886 67.1623 8.55762 66.9971 8.55762H62.5377C62.4138 8.55762 62.3415 8.65057 62.3415 8.78485C62.2796 9.86936 62.1867 10.1999 62.0525 10.5201L55.4356 29.3493C55.4047 29.5765 55.4769 29.6695 55.6627 29.6695H58.8731C59.0693 29.6695 59.1622 29.6075 59.2344 29.4113L60.9996 24.1126H68.6694ZM62.0216 20.6112C62.9919 17.6779 64.2719 13.9182 64.788 11.7698H64.819C65.459 14.0215 66.9661 18.4835 67.6474 20.6112H62.0216Z" fill="white" fill-opacity="0.75"/>
<path d="M84.1876 29.9898C86.118 29.9898 88.1722 29.6386 90.2574 28.74C90.4225 28.678 90.4535 28.6057 90.4535 28.4508C90.3916 27.8724 90.3193 27.0358 90.3193 26.3954V6.97742C90.3193 6.85348 90.3193 6.7915 90.1645 6.7915H86.6651C86.5309 6.7915 86.4689 6.85348 86.4689 7.01874V13.5981C85.9218 13.5361 85.5399 13.5052 85.0857 13.5052C79.4391 13.5052 75.9707 17.2338 75.9707 21.8921C75.9707 27.294 79.532 29.9898 84.1876 29.9898V29.9898ZM86.4689 26.3954C85.8909 26.5813 85.2508 26.6536 84.6005 26.6536C82.0405 26.6536 79.945 25.2076 79.945 21.6958C79.945 18.5869 82.1024 16.7484 84.9618 16.7484C85.5399 16.7484 86.0457 16.8103 86.4689 16.9756V26.3954Z" fill="white" fill-opacity="0.75"/>
<path d="M101.617 13.5049C96.7967 13.5049 93.8135 17.2026 93.8135 21.7678C93.8135 25.8477 96.1877 29.9895 101.545 29.9895C106.077 29.9895 109.256 26.6533 109.256 21.6646C109.256 17.2645 106.562 13.5049 101.617 13.5049ZM101.421 16.7481C104.147 16.7481 105.303 19.0927 105.303 21.7678C105.303 25.073 103.599 26.7153 101.617 26.7153C99.171 26.7153 97.7258 24.6599 97.7258 21.6955C97.7258 18.6486 99.2639 16.7481 101.421 16.7481V16.7481Z" fill="white" fill-opacity="0.75"/>
<path d="M112.874 6.7915C112.74 6.7915 112.647 6.85348 112.647 7.01874V28.9982C112.647 29.0912 112.74 29.2564 112.874 29.2874C114.412 29.7625 116.022 29.9898 117.684 29.9898C122.443 29.9898 127.068 27.0358 127.068 21.0864C127.068 16.7794 124.116 13.5052 119.491 13.5052C118.428 13.5052 117.437 13.6704 116.57 13.9596L116.528 7.04972C116.528 6.82249 116.466 6.7915 116.239 6.7915H112.874ZM123.114 21.4789C123.114 25.0423 120.678 26.7156 118.046 26.7156C117.499 26.7156 117.013 26.6846 116.57 26.5503V17.1718C117.075 16.9756 117.684 16.8103 118.81 16.8103C121.349 16.8103 123.114 18.4216 123.114 21.4789Z" fill="white" fill-opacity="0.75"/>
<path d="M140.128 22.6355C141.697 22.6355 142.987 22.6045 143.431 22.5012C143.596 22.4702 143.658 22.4082 143.689 22.274C143.782 21.9228 143.823 21.1894 143.823 20.2908C143.823 17.2335 141.986 13.5049 137.237 13.5049C132.386 13.5049 129.691 17.4608 129.691 21.9228C129.691 25.8787 131.777 29.9895 137.619 29.9895C139.808 29.9895 141.222 29.6383 142.44 29.0599C142.564 28.9979 142.626 28.8946 142.626 28.7087V26.0336C142.626 25.8787 142.533 25.8477 142.44 25.9097C141.222 26.4261 139.901 26.6843 138.455 26.6843C135.183 26.6843 133.697 24.8768 133.604 22.6355H140.128ZM133.604 19.8674C133.862 18.2974 134.853 16.5932 137.072 16.5932C139.519 16.5932 140.159 18.6486 140.159 19.5782C140.159 19.6091 140.159 19.7434 140.159 19.8364C140.024 19.8674 139.612 19.8674 138.393 19.8674H133.604Z" fill="white" fill-opacity="0.75"/>
</g>
<defs>
<clipPath id="clip0_218_30">
<rect width="144" height="37.9167" fill="white"/>
</clipPath>
</defs>
</svg>
