<svg width="143" height="28" viewBox="0 0 143 28" fill="none" xmlns="http://www.w3.org/2000/svg">
<g clip-path="url(#clip0_218_48)">
<path fill-rule="evenodd" clip-rule="evenodd" d="M22.9162 14.7934C19.3988 14.7934 16.5472 17.6363 16.5472 21.1435C16.5472 24.6504 19.3988 27.4933 22.9162 27.4933C26.4337 27.4933 29.2852 24.6504 29.2852 21.1435C29.2852 17.6363 26.4337 14.7934 22.9162 14.7934ZM6.36902 14.794C2.85154 14.794 0 17.6363 0 21.1435C0 24.6504 2.85154 27.4933 6.36902 27.4933C9.88665 27.4933 12.7383 24.6504 12.7383 21.1435C12.7383 17.6363 9.88665 14.794 6.36902 14.794ZM21.0115 6.856C21.0115 10.3632 18.1602 13.2063 14.6426 13.2063C11.125 13.2063 8.27363 10.3632 8.27363 6.856C8.27363 3.34956 11.125 0.506348 14.6426 0.506348C18.1602 0.506348 21.0115 3.34956 21.0115 6.856Z" fill="white" fill-opacity="0.75"/>
<path fill-rule="evenodd" clip-rule="evenodd" d="M138.707 20.9165C138.79 21.8585 139.545 23.0576 140.856 23.0576H141.621C141.919 23.0576 142.162 22.815 142.162 22.5186V5.72078H142.158C142.143 5.43778 141.909 5.21113 141.621 5.21113H139.248C138.96 5.21113 138.726 5.43778 138.711 5.72078H138.707V7.08569C137.252 5.29829 134.959 4.55642 132.66 4.55642C127.433 4.55642 123.196 8.78408 123.196 13.9995C123.196 19.2152 127.433 23.4429 132.66 23.4429C134.959 23.4429 137.466 22.5532 138.707 20.9144V20.9165ZM132.669 20.138C129.345 20.138 126.65 17.3899 126.65 13.9995C126.65 10.6096 129.345 7.86146 132.669 7.86146C135.994 7.86146 138.688 10.6096 138.688 13.9995C138.688 17.3899 135.994 20.138 132.669 20.138Z" fill="white" fill-opacity="0.75"/>
<path fill-rule="evenodd" clip-rule="evenodd" d="M120.194 12.802C120.194 7.90232 117.096 4.59688 112.156 4.59688C109.798 4.59688 107.864 5.95751 107.182 7.12632C107.034 6.2124 106.548 5.25175 105.04 5.25175H104.271C103.974 5.25175 103.731 5.4946 103.731 5.79093V20.9586C103.731 20.9591 103.731 20.9602 103.731 20.9609V22.5902H103.734C103.749 22.8727 103.984 23.0996 104.271 23.0996H106.645C106.682 23.0996 106.717 23.0953 106.752 23.0887C106.767 23.0856 106.782 23.0794 106.797 23.0751C106.815 23.0697 106.833 23.0655 106.85 23.0586C106.871 23.0499 106.89 23.0382 106.91 23.0272C106.92 23.0213 106.93 23.0173 106.939 23.0111C106.963 22.9958 106.984 22.9775 107.005 22.9588C107.009 22.9553 107.013 22.953 107.016 22.9498C107.04 22.927 107.062 22.9019 107.081 22.8758C107.14 22.7944 107.176 22.696 107.182 22.5902H107.185V12.6672C107.185 10.0358 109.324 7.90232 111.961 7.90232C114.599 7.90232 116.737 10.0358 116.737 12.6672L116.739 20.9615L116.74 20.9586C116.74 20.9659 116.741 20.9735 116.741 20.9813V22.5902H116.744C116.76 22.8727 116.994 23.0996 117.281 23.0996H119.655C119.692 23.0996 119.727 23.0953 119.762 23.0887C119.776 23.0861 119.789 23.0804 119.802 23.0766C119.822 23.0709 119.842 23.0661 119.861 23.0586C119.88 23.0506 119.898 23.0394 119.916 23.0291C119.927 23.0228 119.939 23.0182 119.95 23.0111C119.972 22.9967 119.992 22.9793 120.011 22.9622C120.016 22.9576 120.022 22.9541 120.027 22.9494C120.049 22.9278 120.069 22.9044 120.088 22.8799C120.089 22.878 120.09 22.8766 120.092 22.8747C120.15 22.7941 120.186 22.6967 120.192 22.5916C120.192 22.5908 120.193 22.5902 120.193 22.5902H120.196L120.194 12.802Z" fill="white" fill-opacity="0.75"/>
<path fill-rule="evenodd" clip-rule="evenodd" d="M95.4719 20.9165C95.5549 21.8585 96.3107 23.0575 97.6201 23.0575H98.3861C98.6831 23.0575 98.9262 22.8149 98.9262 22.5186V5.72078H98.9232C98.9077 5.43778 98.6729 5.21113 98.3861 5.21113H96.0123C95.7252 5.21113 95.4907 5.43778 95.4746 5.72078H95.4719V7.08569C94.0173 5.29829 91.7242 4.55642 89.4247 4.55642C84.1978 4.55642 79.9608 8.78406 79.9608 13.9995C79.9608 19.2152 84.1978 23.443 89.4247 23.443C91.7242 23.443 94.2303 22.5533 95.4717 20.9144L95.4719 20.9165ZM89.4339 20.138C86.1099 20.138 83.4148 17.39 83.4148 13.9995C83.4148 10.6096 86.1099 7.86146 89.4339 7.86146C92.7584 7.86146 95.4529 10.6096 95.4529 13.9995C95.4529 17.39 92.7584 20.138 89.4339 20.138Z" fill="white" fill-opacity="0.75"/>
<path fill-rule="evenodd" clip-rule="evenodd" d="M65.9226 18.5107C67.5073 19.6061 69.2371 20.1382 70.8994 20.1382C72.483 20.1382 74.1202 19.319 74.1202 17.8932C74.1202 15.9898 70.5528 15.6936 68.3114 14.9335C66.0695 14.1734 64.1387 12.6022 64.1387 10.0577C64.1387 6.16421 67.6157 4.55615 70.861 4.55615C72.9172 4.55615 75.0387 5.23267 76.4141 6.20177C76.8878 6.55989 76.5993 6.97104 76.5993 6.97104L75.2864 8.84202C75.1388 9.05275 74.8807 9.23482 74.5104 9.00673C74.14 8.7788 72.8409 7.86129 70.861 7.86129C68.8809 7.86129 67.6882 8.77363 67.6882 9.90445C67.6882 11.2605 69.2384 11.687 71.054 12.1492C74.2181 13.0001 77.6698 14.023 77.6698 17.8932C77.6698 21.3237 74.4537 23.4437 70.8994 23.4437C68.206 23.4437 65.9127 22.6776 63.9894 21.2694C63.5887 20.8693 63.8685 20.4978 63.8685 20.4978L65.1751 18.6363C65.4409 18.2883 65.776 18.4096 65.9226 18.5107Z" fill="white" fill-opacity="0.75"/>
<path fill-rule="evenodd" clip-rule="evenodd" d="M56.7964 20.9165C56.8794 21.8585 57.6352 23.0575 58.9445 23.0575H59.7107C60.0076 23.0575 60.251 22.8149 60.251 22.5186V5.72078H60.2477C60.2321 5.43778 59.9976 5.21113 59.7107 5.21113H57.3368C57.0497 5.21113 56.8152 5.43778 56.7993 5.72078H56.7964V7.08569C55.342 5.29829 53.0489 4.55642 50.7493 4.55642C45.5225 4.55642 41.2852 8.78406 41.2852 13.9995C41.2852 19.2152 45.5225 23.443 50.7493 23.443C53.0489 23.443 55.5549 22.5533 56.7961 20.9144L56.7964 20.9165ZM50.7586 20.138C47.4343 20.138 44.7394 17.39 44.7394 13.9995C44.7394 10.6096 47.4343 7.86146 50.7586 7.86146C54.0828 7.86146 56.7774 10.6096 56.7774 13.9995C56.7774 17.39 54.0828 20.138 50.7586 20.138Z" fill="white" fill-opacity="0.75"/>
</g>
<defs>
<clipPath id="clip0_218_48">
<rect width="142.162" height="28" fill="white"/>
</clipPath>
</defs>
</svg>
