<svg viewBox="0 0 84 36" fill="none" xmlns="http://www.w3.org/2000/svg">
<g clip-path="url(#clip0_218_53)">
<path fill-rule="evenodd" clip-rule="evenodd" d="M18.8639 33.2374C20.5049 32.2105 21.884 30.9573 23.0509 29.6523C23.8863 31.3726 25.5628 32.5468 27.3406 32.5468C28.7105 32.5468 30.0805 31.8562 31.0223 30.5612C31.3648 31.7698 32.2211 32.5468 33.6766 32.5468C34.769 32.5468 37.1502 31.4228 39.3095 29.7573L39.0708 30.9928C38.9851 31.3381 38.9851 31.5971 38.9851 31.7698C39.0708 32.2878 39.4132 32.5468 39.927 32.5468C40.9544 32.5468 42.41 31.5971 42.7525 30.0432L43.2663 27.8849C43.8656 25.1223 47.8899 20.9784 49.0029 20.9784C49.0886 20.9784 49.2598 21.0647 49.2598 21.2374C49.2938 21.5115 49.0985 22.0304 48.8131 22.7887C48.3794 23.941 47.7376 25.6461 47.3761 27.8849C47.2049 28.5755 47.2049 29.2662 47.2905 29.7842C47.4617 31.4245 48.4036 32.5468 50.2017 32.5468C51.7404 32.5468 55.0765 31.2224 57.4147 28.5737C57.591 30.0114 57.8926 31.2343 58.3358 32.0288C58.5071 32.3741 58.9352 32.4605 59.3633 32.4605C59.877 32.4605 60.562 32.2878 61.3326 31.8562C63.1307 30.9065 65.4425 28.6619 67.6687 25.3813C68.0112 25.4677 68.268 25.4677 68.5249 25.4677C69.4133 25.4677 70.4063 25.1515 71.3282 24.5921C70.945 25.7587 70.7956 26.9502 70.9224 28.0576C71.2648 30.6475 73.4054 32.6331 75.7172 32.6331C77.0015 32.6331 78.3715 31.8561 79.3133 30.6475C79.6558 32.2878 80.6833 34.0144 83.252 35.0504C83.4232 35.1367 83.5945 35.1367 83.7657 35.1367C84.2794 35.1367 84.6219 34.7914 84.5363 34.3597C84.5363 34.1871 84.4507 33.9281 84.1938 33.7554C83.5945 33.2374 82.9095 32.2878 82.7382 30.8201C82.6526 30.1295 82.6526 29.2662 83.0807 28.4029C83.5945 26.0719 83.6801 25.3813 83.6801 25.1223C83.5945 24.518 83.1664 24.259 82.6526 24.259C81.6251 24.259 80.1696 25.295 79.8271 26.7626C79.2277 29.0072 77.6865 30.4748 76.6591 30.4748C75.3747 30.4748 74.6897 29.0935 74.5185 27.6259C74.0904 24 76.3166 19.5971 79.6558 19.5971C80.5977 19.5971 81.7108 19.9424 81.7964 20.9784C81.9016 21.9332 81.328 22.171 80.8899 22.3526C80.615 22.4665 80.3934 22.5584 80.4264 22.7914C80.5121 23.482 81.6251 23.6547 82.3958 23.6547C83.0807 23.6547 85.3069 23.1367 84.9644 20.6331C84.7076 18.6475 82.567 17.6978 80.1696 17.6978C77.3076 17.6978 74.8719 19.1589 73.2131 21.1807C72.9838 21.3172 72.7417 21.5613 72.4635 21.8418C71.9498 22.4461 70.9223 23.0504 69.638 23.0504C69.4667 23.0504 69.1242 22.9641 69.1242 22.9641C69.9805 21.3238 70.5798 19.5972 70.5798 18.1295C70.5798 15.7123 69.1242 14.5036 67.4974 14.5036C65.4425 14.5036 63.3019 16.3166 63.3019 19.9425C63.3019 22.1008 64.1582 23.8274 65.6137 24.777C63.9013 27.5396 61.5895 29.8705 61.247 29.8705C61.1288 29.8705 61.0922 29.7471 61.0526 29.6138C61.0349 29.5541 61.0166 29.4923 60.9901 29.4389C60.7333 28.4893 60.4764 26.59 60.4764 25.4677C60.4764 23.3957 60.8189 21.3238 61.5895 19.1655C61.6751 18.9065 61.7607 18.6475 61.7607 18.4749C61.7607 17.8705 61.3326 17.6116 60.8189 17.6116C59.7914 17.6116 58.1646 18.8202 57.7365 20.1151C57.394 21.3238 57.2227 23.0504 57.2227 25.1223C57.2227 25.5023 57.2288 25.8792 57.2412 26.2504C55.1978 29.0277 52.6763 29.9568 51.9141 29.9568C50.9723 29.9568 50.801 29.0935 50.9723 28.7482C51.5716 26.2446 52.3422 23.3957 53.0272 21.4101C53.3697 20.4604 53.5409 19.5971 53.4553 19.0791C53.2841 18.1295 52.6847 17.6978 51.8285 17.6978C49.7736 17.6978 46.5199 19.7698 44.3793 22.6187L45.0643 19.5108C45.1499 19.1655 45.1499 18.9065 45.1499 18.7338C45.0643 18.1295 44.7218 17.8705 44.2081 17.8705C41.8107 17.8705 41.3826 19.0791 41.1257 20.2878C41.0761 20.5878 40.3947 24.131 39.8299 27.0601C38.0028 28.7508 35.9556 29.8705 35.3891 29.8705C34.7041 29.8705 34.4472 29.3526 34.4472 28.9209C34.4472 28.6228 34.6174 27.8099 34.7782 27.0418C34.8968 26.4755 35.0103 25.9334 35.0466 25.6403C35.1322 25.295 35.1322 25.036 35.1322 24.8634C35.0466 24.3454 34.6185 24.0864 34.1048 24.0864C33.0773 24.0864 31.6217 25.1223 31.2792 26.59C30.7655 28.8346 29.2243 30.3022 28.1968 30.3022C26.9125 30.3022 26.2275 28.9209 26.0563 27.5396C25.6281 24.4317 27.5975 19.4245 31.1936 19.4245C32.2211 19.4245 33.2485 19.7698 33.3342 20.8058C33.4378 21.799 32.9137 22.0325 32.5031 22.2156C32.2355 22.3348 32.016 22.4326 32.0498 22.7051C32.1354 23.3957 33.2485 23.5684 33.9335 23.5684C34.7041 23.5684 36.8447 23.0504 36.5022 20.5468C36.2453 18.5612 34.1904 17.5252 31.7073 17.5252C25.9485 17.5252 22.1163 23.2684 22.5305 27.8211C21.068 29.5466 19.6069 30.5843 16.9802 31.9424C15.5247 32.7194 13.8122 33.1511 12.271 33.1511C7.47616 33.1511 5.16435 28.7482 4.73624 24.9496C3.53753 15.2806 12.0998 1.89928 18.0077 1.89928C19.3777 1.89928 20.5764 3.10791 20.8332 5.00719C21.1757 7.94245 21.0901 10.0144 18.0933 12.518C17.7508 12.777 17.6652 13.2086 17.8365 13.4676C18.0933 13.8129 18.9496 13.8993 20.5764 13.036C23.83 11.3957 24.9431 8.89209 24.6006 5.95683C24.2581 2.67626 21.4326 0 17.6652 0C15.7815 0 13.8122 0.517986 12.0141 1.64029C4.22251 6.47482 -0.829212 17.3525 0.112634 25.6403C0.455124 28.3165 1.56821 31.1655 3.62315 33.1511C4.99311 34.446 7.47616 36 10.4729 36C13.7266 36 16.4665 34.7914 18.8639 33.2374ZM66.9837 21.8418C66.1275 20.8921 65.4425 19.4245 65.4425 18.0432C65.4425 17.2662 65.6994 16.4029 66.2987 16.4029C66.8124 16.4029 67.4974 17.1799 67.4974 18.9928C67.4974 19.9425 67.3262 20.8921 66.9837 21.8418Z" fill="white" fill-opacity="0.75"/>
</g>
<defs>
<clipPath id="clip0_218_53">
<rect width="84" height="36" fill="white"/>
</clipPath>
</defs>
</svg>
