<svg width="146" height="26" viewBox="0 0 146 26" fill="none" xmlns="http://www.w3.org/2000/svg">
<g clip-path="url(#clip0_218_70)">
<path d="M29.3255 7.25871C24.047 7.25871 19.9227 11.2725 19.9227 16.6458C19.9227 22.0192 23.9428 25.9987 29.3255 25.9987C34.7081 25.9987 38.7981 21.9505 38.7981 16.6115C38.7981 11.3069 34.778 7.25871 29.3255 7.25871ZM29.3611 22.1262C26.3552 22.1262 24.1525 19.7877 24.1525 16.6472C24.1525 13.471 26.3196 11.1338 29.3255 11.1338C32.3669 11.1338 34.5683 13.5067 34.5683 16.6472C34.5683 19.7877 32.3669 22.1262 29.3611 22.1262ZM39.9509 11.3425H42.5728V25.6512H46.767V7.60752H39.9509V11.3425ZM9.36716 11.1325C11.5698 11.1325 13.3174 12.4933 13.9808 14.5174H18.4204C17.6159 10.1905 14.0508 7.25871 9.40276 7.25871C4.12434 7.25871 0 11.2725 0 16.6472C0 22.0218 4.02015 26 9.40276 26C13.9465 26 17.5816 23.0683 18.3861 18.7056H13.9808C13.3517 20.7297 11.6041 22.1262 9.40147 22.1262C6.35996 22.1262 4.22852 19.7877 4.22852 16.6472C4.22986 13.471 6.32699 11.1325 9.36716 11.1325ZM119.644 14.9019L116.568 14.4487C115.101 14.24 114.052 13.7511 114.052 12.599C114.052 11.3425 115.416 10.715 117.268 10.715C119.295 10.715 120.589 11.587 120.868 13.0178H124.923C124.468 9.38848 121.672 7.26001 117.373 7.26001C112.933 7.26001 109.998 9.52855 109.998 12.7391C109.998 15.8095 111.92 17.5905 115.799 18.1481L118.875 18.6013C120.379 18.81 121.218 19.4045 121.218 20.5209C121.218 21.9518 119.75 22.545 117.723 22.545C115.24 22.545 113.842 21.533 113.633 19.9978H109.508C109.893 23.5227 112.654 26 117.687 26C122.266 26 125.307 23.9059 125.307 20.3109C125.307 17.1004 123.105 15.4251 119.644 14.9019ZM44.6699 0.174399C43.132 0.174399 41.9782 1.29082 41.9782 2.82606C41.9782 4.3613 43.1308 5.47771 44.6699 5.47771C46.2078 5.47771 47.362 4.3613 47.362 2.82606C47.362 1.29082 46.2078 0.174399 44.6699 0.174399ZM106.223 13.7854C106.223 9.87732 103.846 7.26001 98.8128 7.26001C94.0593 7.26001 91.4029 9.66859 90.8781 13.3679H95.0379C95.2475 11.9371 96.3661 10.7506 98.743 10.7506C100.876 10.7506 101.924 11.6926 101.924 12.8448C101.924 14.3457 100.001 14.7288 97.6245 14.9732C94.4089 15.322 90.4243 16.4384 90.4243 20.6267C90.4243 23.8729 92.8365 25.9656 96.6816 25.9656C99.6872 25.9656 101.575 24.7092 102.519 22.7195C102.659 24.4991 103.987 25.6512 105.84 25.6512H108.287V21.9175H106.224V13.7854H106.223ZM102.098 18.3225C102.098 20.731 100.001 22.5107 97.4489 22.5107C95.8758 22.5107 94.5476 21.8474 94.5476 20.4523C94.5476 18.6726 96.68 18.1838 98.6376 17.975C100.525 17.8006 101.573 17.3818 102.098 16.5785V18.3225ZM79.8332 7.25871C77.4907 7.25871 75.5335 8.23639 74.1355 9.87602V0H69.9413V25.6512H74.0654V23.2783C75.4633 24.9879 77.4566 26 79.8332 26C84.8661 26 88.6767 22.0218 88.6767 16.6472C88.6767 11.2725 84.7964 7.25871 79.8332 7.25871ZM79.2042 22.1262C76.1982 22.1262 73.9956 19.7877 73.9956 16.6472C73.9956 13.5067 76.2327 11.1338 79.2382 11.1338C82.2799 11.1338 84.4111 13.4723 84.4111 16.6472C84.4111 19.7877 82.2097 22.1262 79.2042 22.1262ZM59.9091 7.25871C57.1829 7.25871 55.3997 8.37513 54.3513 9.94602V7.60752H50.1911V25.6499H54.3854V15.8439C54.3854 13.0865 56.1329 11.1325 58.7196 11.1325C61.1318 11.1325 62.634 12.8421 62.634 15.3207V25.6512H66.8282V15.0076C66.8299 10.4692 64.4886 7.25871 59.9091 7.25871ZM145.3 16.054C145.3 10.8894 141.525 7.26001 136.457 7.26001C131.074 7.26001 127.124 11.3082 127.124 16.6472C127.124 22.2663 131.354 26 136.527 26C140.896 26 144.322 23.4171 145.195 19.7533H140.825C140.196 21.3586 138.658 22.2663 136.596 22.2663C133.903 22.2663 131.876 20.591 131.422 17.6592H145.299V16.054H145.3ZM131.668 14.6575C132.333 12.1445 134.22 10.9237 136.387 10.9237C138.764 10.9237 140.581 12.2846 141.001 14.6575H131.668Z" fill="white" fill-opacity="0.75"/>
</g>
<defs>
<clipPath id="clip0_218_70">
<rect width="146" height="26" fill="white"/>
</clipPath>
</defs>
</svg>
