<svg viewBox="0 0 143 36" fill="none" xmlns="http://www.w3.org/2000/svg">
<g clip-path="url(#clip0_218_46)">
<path fill-rule="evenodd" clip-rule="evenodd" d="M18.4237 0C8.24462 0 0 8.25874 0 18.4553C0 26.6218 5.2738 33.5194 12.5972 35.9647C13.5184 36.1262 13.8639 35.5726 13.8639 35.0881C13.8639 34.6498 13.8408 33.1964 13.8408 31.6508C9.21187 32.5044 8.01433 30.5204 7.64585 29.4823C7.43859 28.9517 6.54043 27.3138 5.75742 26.8755C5.11259 26.5295 4.1914 25.6759 5.73439 25.6528C7.18526 25.6298 8.22159 26.9909 8.56704 27.5445C10.2252 30.3359 12.8736 29.5515 13.933 29.0671C14.0942 27.8675 14.5778 27.0601 15.1075 26.5987C11.0082 26.1373 6.72467 24.5455 6.72467 17.4864C6.72467 15.4794 7.43859 13.8184 8.6131 12.5265C8.42886 12.0651 7.78403 10.1735 8.79734 7.63588C8.79734 7.63588 10.3403 7.15142 13.8639 9.52754C15.3378 9.1123 16.9038 8.90468 18.4698 8.90468C20.0358 8.90468 21.6018 9.1123 23.0757 9.52754C26.5993 7.12836 28.1423 7.63588 28.1423 7.63588C29.1556 10.1735 28.5107 12.0651 28.3265 12.5265C29.501 13.8184 30.2149 15.4563 30.2149 17.4864C30.2149 24.5686 25.9084 26.1373 21.8091 26.5987C22.477 27.1754 23.0527 28.2827 23.0527 30.0129C23.0527 32.4813 23.0297 34.4653 23.0297 35.0881C23.0297 35.5726 23.3751 36.1493 24.2963 35.9647C27.9538 34.7279 31.1319 32.3733 33.3834 29.2323C35.635 26.0913 36.8465 22.3221 36.8475 18.4553C36.8475 8.25874 28.6029 0 18.4237 0Z" fill="white" fill-opacity="0.75"/>
<path d="M85.8884 27.3632H85.8454C85.8648 27.3632 85.8777 27.3847 85.897 27.3869H85.9099L85.8884 27.3653V27.3632ZM85.897 27.3869C85.6971 27.389 85.1941 27.4945 84.6632 27.4945C82.9867 27.4945 82.4063 26.7194 82.4063 25.7074V18.966H85.8239C86.0174 18.966 86.1678 18.7938 86.1678 18.5569V14.8966C86.1678 14.7029 85.9959 14.5306 85.8239 14.5306H82.4063V9.98754C82.4063 9.81529 82.2988 9.70763 82.1054 9.70763H77.4626C77.2692 9.70763 77.1617 9.81529 77.1617 9.98754V14.6598C77.1617 14.6598 74.8188 15.2411 74.6684 15.2627C74.4964 15.3057 74.3889 15.4565 74.3889 15.6287V18.5569C74.3889 18.7938 74.5609 18.966 74.7543 18.966H77.1402V26.0283C77.1402 31.2819 80.7942 31.8201 83.2876 31.8201C84.4268 31.8201 85.8024 31.4541 86.0174 31.3465C86.1463 31.3034 86.2108 31.1527 86.2108 31.002V27.7723C86.2138 27.6807 86.1837 27.5911 86.126 27.5199C86.0684 27.4487 85.9871 27.4007 85.897 27.3847V27.3869ZM136.83 22.6479C136.83 18.7507 135.261 18.234 133.606 18.4062C132.316 18.4923 131.285 19.1383 131.285 19.1383V26.7173C131.285 26.7173 132.338 27.4493 133.907 27.4924C136.121 27.557 136.83 26.7603 136.83 22.6479ZM142.053 22.3034C142.053 29.6886 139.667 31.7986 135.497 31.7986C131.972 31.7986 130.081 30.0115 130.081 30.0115C130.081 30.0115 129.995 31.002 129.887 31.1311C129.823 31.2603 129.715 31.3034 129.586 31.3034H126.405C126.19 31.3034 125.997 31.1311 125.997 30.9374L126.04 7.01624C126.04 6.82246 126.212 6.65021 126.405 6.65021H130.984C131.177 6.65021 131.349 6.82246 131.349 7.01624V15.1335C131.349 15.1335 133.112 13.9923 135.691 13.9923L135.669 13.9493C138.249 13.9493 142.053 14.9182 142.053 22.3034ZM123.31 14.5306H118.796C118.56 14.5306 118.431 14.7029 118.431 14.9397V26.6527C118.431 26.6527 117.249 27.4924 115.637 27.4924C114.025 27.4924 113.552 26.7603 113.552 25.1455V14.9182C113.552 14.7244 113.38 14.5521 113.186 14.5521H108.586C108.393 14.5521 108.221 14.7244 108.221 14.9182V25.9206C108.221 30.6575 110.865 31.8417 114.497 31.8417C117.485 31.8417 119.914 30.1838 119.914 30.1838C119.914 30.1838 120.021 31.0235 120.086 31.1527C120.129 31.2603 120.279 31.3465 120.43 31.3465H123.31C123.547 31.3465 123.675 31.1742 123.675 30.9804L123.718 14.8966C123.718 14.7029 123.547 14.5306 123.31 14.5306ZM72.3685 14.5091H67.7902C67.5967 14.5091 67.4247 14.7029 67.4247 14.9397V30.7436C67.4247 31.1742 67.7042 31.3249 68.0696 31.3249H72.1965C72.6264 31.3249 72.7339 31.1311 72.7339 30.7436V14.8751C72.7339 14.6813 72.5619 14.5091 72.3685 14.5091ZM70.1115 7.23155C68.4565 7.23155 67.1453 8.54495 67.1453 10.2028C67.1453 11.8607 68.4565 13.1742 70.1115 13.1742C71.7236 13.1742 73.0348 11.8607 73.0348 10.2028C73.0348 8.54495 71.7236 7.23155 70.1115 7.23155ZM105.556 6.69327H101.02C100.827 6.69327 100.655 6.86552 100.655 7.0593V15.8655H93.5404V7.0593C93.5404 6.86552 93.3684 6.69327 93.175 6.69327H88.5967C88.4033 6.69327 88.2313 6.86552 88.2313 7.0593V30.9804C88.2313 31.1742 88.4247 31.3465 88.5967 31.3465H93.175C93.3684 31.3465 93.5404 31.1742 93.5404 30.9804V20.7531H100.655L100.612 30.9804C100.612 31.1742 100.784 31.3465 100.977 31.3465H105.556C105.749 31.3465 105.921 31.1742 105.921 30.9804V7.0593C105.921 6.86552 105.749 6.69327 105.556 6.69327ZM64.9959 17.2866V29.6455C64.9959 29.7316 64.9744 29.8823 64.8669 29.9254C64.8669 29.9254 62.1801 31.8417 57.7523 31.8417C52.4002 31.8417 46.0594 30.1622 46.0594 19.0952C46.0594 8.0282 51.6049 5.7459 57.0215 5.76743C61.7072 5.76743 63.5988 6.82246 63.8997 7.01624C63.9856 7.12389 64.0286 7.21002 64.0286 7.31767L63.1259 11.1502C63.1259 11.344 62.9324 11.5808 62.696 11.5163C61.9222 11.2794 60.7615 10.8057 58.0317 10.8057C54.872 10.8057 51.4759 11.71 51.4759 18.8368C51.4759 25.9637 54.7001 26.8034 57.0215 26.8034C58.999 26.8034 59.7083 26.5665 59.7083 26.5665V21.6144H56.5486C56.3122 21.6144 56.1402 21.4421 56.1402 21.2483V17.2866C56.1402 17.0928 56.3122 16.9206 56.5486 16.9206H64.5875C64.8239 16.9206 64.9959 17.0928 64.9959 17.2866Z" fill="white" fill-opacity="0.75"/>
</g>
<defs>
<clipPath id="clip0_218_46">
<rect width="143" height="36" fill="white"/>
</clipPath>
</defs>
</svg>
