<svg viewBox="0 0 186 36" fill="none" xmlns="http://www.w3.org/2000/svg">
<g clip-path="url(#clip0_218_62)">
<path d="M18.0625 0C28.0374 0.000238597 36.124 8.05925 36.124 18C36.1238 27.9406 28.0373 35.9998 18.0625 36C8.08753 36 0.000211258 27.9407 0 18C0 8.0591 8.0874 0 18.0625 0ZM22.8369 8.5459C21.1354 7.69268 19.2356 7.31364 17.3369 7.44727C12.0562 7.80058 7.78244 12.1075 7.47852 17.373C7.12674 23.502 12.0033 28.5039 18.0703 28.5039C19.583 28.5101 21.0794 28.1902 22.457 27.5654C23.8345 26.9407 25.0609 26.0257 26.0527 24.8838L25.8223 26.167V27.3271C25.8223 27.9249 26.2279 28.4796 26.8193 28.5859C26.9959 28.6192 27.1776 28.6132 27.3516 28.5684C27.5255 28.5235 27.6877 28.4415 27.8262 28.3271C27.9647 28.2127 28.0765 28.0687 28.1533 27.9062C28.2301 27.7439 28.2699 27.5663 28.2705 27.3867V20.4395H21.626C21.4462 20.4392 21.2683 20.4785 21.1055 20.5547C20.9428 20.6309 20.7994 20.7427 20.6846 20.8809C20.5697 21.019 20.4866 21.1806 20.4414 21.3545C20.3963 21.5283 20.3898 21.7102 20.4229 21.8867C20.5292 22.4755 21.0851 22.8798 21.6865 22.8799H23.5791L24.6758 22.7275C22.9207 25.2931 19.8736 26.4734 16.542 25.9531C13.8296 25.5289 11.4987 23.6996 10.5146 21.1455C8.28333 15.3469 12.5325 9.81152 18.0703 9.81152C20.9561 9.81164 23.4863 11.494 24.9375 13.5264C25.3225 14.0798 26.0876 14.2831 26.6436 13.8994C26.8961 13.7284 27.0739 13.4673 27.1416 13.1699C27.2093 12.8725 27.1614 12.5604 27.0078 12.2969C25.9793 10.6952 24.5385 9.39923 22.8369 8.5459Z" fill="white" fill-opacity="0.75"/>
<path fill-rule="evenodd" clip-rule="evenodd" d="M49.9934 29.2703C49.2796 28.9982 48.8123 28.422 48.8123 27.6537C48.8123 26.7238 49.5805 25.9572 50.5152 25.9572C50.7905 25.9572 51.0114 26.0116 51.2035 26.0932C52.4781 26.681 53.8668 26.9805 55.2704 26.9703C58.1306 26.9703 59.4766 25.6018 59.4766 22.9706V22.2583C58.2394 23.7388 56.8934 24.6431 54.667 24.6431C51.2307 24.6431 48.124 22.1495 48.124 17.7928V17.74C48.124 13.3561 51.2851 10.8913 54.667 10.8913C56.9478 10.8913 58.2938 11.8516 59.4206 13.0841V13.0552C59.4206 11.9317 60.3553 11.0018 61.5109 11.0018C62.6633 11.0018 63.598 11.9317 63.598 13.0825V22.5336C63.598 25.1633 62.9674 27.0791 61.7302 28.3115C60.3553 29.6832 58.2394 30.285 55.3809 30.285C53.5361 30.3012 51.7059 29.9565 49.9934 29.2703V29.2703ZM59.4766 17.7944V17.74C59.4766 15.7393 57.9081 14.3421 55.8754 14.3421C53.8427 14.3421 52.303 15.7393 52.303 17.74V17.7944C52.303 19.8207 53.8427 21.1908 55.8754 21.1908C57.9081 21.1908 59.4766 19.7935 59.4766 17.7944V17.7944ZM65.9636 13.0825C65.9636 11.9317 66.8983 11.0018 68.0523 11.0018C69.2079 11.0018 70.141 11.9317 70.141 13.0825V13.7387C70.746 12.3158 71.7351 11.0018 72.9739 11.0018C74.2656 11.0018 75.0066 11.85 75.0066 13.028C75.0066 14.1228 74.2928 14.7806 73.4397 14.9727C71.3238 15.4673 70.1426 17.0822 70.1426 20.04V23.9293C70.1426 25.0801 69.2079 26.0116 68.0523 26.0116C67.7785 26.0122 67.5073 25.9589 67.2541 25.8546C67.0009 25.7504 66.7707 25.5973 66.5768 25.404C66.3828 25.2108 66.2288 24.9813 66.1236 24.7285C66.0184 24.4757 65.964 24.2047 65.9636 23.9309V13.0825V13.0825ZM74.512 21.6293V21.5749C74.512 18.369 76.9577 16.8901 80.45 16.8901C81.9337 16.8901 83.0061 17.1366 84.0512 17.4919V17.2454C84.0512 15.5217 82.9789 14.5614 80.8902 14.5614C79.9124 14.5509 78.9388 14.6896 78.0028 14.9727C77.8096 15.0443 77.6054 15.0816 77.3994 15.0831C77.1735 15.0874 76.949 15.0466 76.7391 14.963C76.5292 14.8795 76.338 14.755 76.1767 14.5967C76.0155 14.4385 75.8874 14.2497 75.8 14.0413C75.7126 13.833 75.6676 13.6093 75.6676 13.3834C75.6676 12.6439 76.1318 12.0149 76.7944 11.7668C78.1132 11.2739 79.5425 11.0018 81.4936 11.0018C83.7743 11.0018 85.4245 11.6036 86.468 12.6439C87.5676 13.7387 88.0638 15.3568 88.0638 17.3287V24.0109C88.0638 25.1345 87.1563 26.0116 86.0295 26.0116C84.8195 26.0116 84.0224 25.1633 84.0224 24.2862V24.2574C83.0061 25.381 81.6056 26.1204 79.5697 26.1204C76.7944 26.1204 74.512 24.5327 74.512 21.6293V21.6293ZM84.1057 20.669V19.9311C83.2655 19.562 82.3568 19.3749 81.4392 19.3822C79.6514 19.3822 78.5534 20.0944 78.5534 21.41V21.4645C78.5534 22.588 79.4881 23.2459 80.8342 23.2459C82.7868 23.2459 84.1057 22.1767 84.1057 20.669ZM90.2901 13.0825C90.2901 11.9317 91.2248 11.0018 92.3804 11.0018C93.5344 11.0018 94.4691 11.9317 94.4691 13.0825V13.2473C95.4294 12.0149 96.6955 10.8913 98.8114 10.8913C100.735 10.8913 102.192 11.7396 102.962 13.2201C104.253 11.714 105.795 10.8913 107.798 10.8913C110.905 10.8913 112.776 12.7543 112.776 16.2883V23.9293C112.776 25.0801 111.84 26.0116 110.686 26.0116C110.412 26.0122 110.141 25.9589 109.887 25.8547C109.634 25.7504 109.404 25.5974 109.21 25.4041C109.016 25.2109 108.861 24.9814 108.756 24.7286C108.651 24.4758 108.596 24.2047 108.595 23.9309V17.6568C108.595 15.6849 107.715 14.6718 106.15 14.6718C104.583 14.6718 103.621 15.6849 103.621 17.6568V23.9309C103.621 25.0801 102.688 26.0116 101.532 26.0116C100.979 26.0124 100.449 25.7937 100.057 25.4036C99.6656 25.0134 99.4449 24.4837 99.4436 23.9309V17.6568C99.4436 15.6849 98.5633 14.6718 96.998 14.6718C95.4294 14.6718 94.4691 15.6849 94.4691 17.6568V23.9309C94.4691 25.0801 93.5344 26.0116 92.3804 26.0116C92.1065 26.0124 91.8351 25.9592 91.5817 25.8551C91.3284 25.7509 91.098 25.5979 90.9039 25.4046C90.7097 25.2114 90.5556 24.9817 90.4503 24.7288C90.345 24.476 90.2905 24.2048 90.2901 23.9309V13.0825V13.0825ZM115.03 13.0825C115.03 11.9317 115.964 11.0018 117.118 11.0018C118.274 11.0018 119.209 11.9317 119.209 13.0825V13.2473C120.169 12.0149 121.433 10.8913 123.551 10.8913C125.475 10.8913 126.931 11.7396 127.701 13.2201C128.993 11.714 130.532 10.8913 132.538 10.8913C135.644 10.8913 137.514 12.7543 137.514 16.2883V23.9293C137.514 25.0801 136.579 26.0116 135.424 26.0116C134.871 26.0124 134.34 25.7937 133.949 25.4036C133.557 25.0134 133.336 24.4837 133.335 23.9309V17.6568C133.335 15.6849 132.455 14.6718 130.889 14.6718C129.321 14.6718 128.36 15.6849 128.36 17.6568V23.9309C128.36 25.0801 127.426 26.0116 126.272 26.0116C125.998 26.0122 125.727 25.9589 125.474 25.8546C125.22 25.7504 124.99 25.5973 124.796 25.404C124.602 25.2108 124.448 24.9813 124.343 24.7285C124.238 24.4757 124.183 24.2047 124.183 23.9309V17.6568C124.183 15.6849 123.303 14.6718 121.736 14.6718C120.169 14.6718 119.207 15.6849 119.207 17.6568V23.9309C119.207 25.0801 118.274 26.0116 117.118 26.0116C116.845 26.0122 116.573 25.9589 116.32 25.8546C116.067 25.7504 115.837 25.5973 115.643 25.404C115.449 25.2108 115.295 24.9813 115.19 24.7285C115.084 24.4757 115.03 24.2047 115.03 23.9309V13.0825V13.0825ZM138.889 21.6293V21.5749C138.889 18.369 141.336 16.8901 144.827 16.8901C146.053 16.8791 147.271 17.0827 148.426 17.4919V17.2454C148.426 15.5217 147.354 14.5614 145.265 14.5614C144.111 14.5614 143.177 14.7262 142.38 14.9727C142.186 15.0443 141.982 15.0816 141.776 15.0831C141.55 15.0878 141.325 15.0473 141.115 14.964C140.905 14.8806 140.713 14.7561 140.552 14.5978C140.39 14.4395 140.262 14.2505 140.175 14.0419C140.087 13.8334 140.042 13.6095 140.043 13.3834C140.043 12.6439 140.512 12.0149 141.17 11.7668C142.49 11.2739 143.919 11.0018 145.87 11.0018C148.153 11.0018 149.801 11.6036 150.845 12.6439C151.944 13.7387 152.439 15.3568 152.439 17.3287V24.0109C152.439 24.2764 152.386 24.5391 152.284 24.784C152.181 25.0288 152.031 25.2508 151.842 25.437C151.652 25.6232 151.428 25.7699 151.182 25.8686C150.935 25.9672 150.672 26.0158 150.406 26.0116C149.196 26.0116 148.399 25.1633 148.399 24.2862V24.2574C147.383 25.381 145.979 26.1204 143.946 26.1204C141.17 26.1204 138.889 24.5327 138.889 21.6293V21.6293ZM148.482 20.669V19.9311C147.642 19.5621 146.734 19.375 145.816 19.3822C144.028 19.3822 142.93 20.0944 142.93 21.41V21.4645C142.93 22.588 143.863 23.2459 145.211 23.2459C147.162 23.2459 148.482 22.1767 148.482 20.669ZM154.667 13.0825C154.667 11.9317 155.602 11.0018 156.756 11.0018C157.911 11.0018 158.844 11.9317 158.844 13.0825V13.7387C159.449 12.3158 160.438 11.0018 161.677 11.0018C162.967 11.0018 163.71 11.85 163.71 13.028C163.71 14.1228 162.994 14.7806 162.143 14.9727C160.027 15.4673 158.844 17.0822 158.844 20.04V23.9293C158.844 25.0801 157.911 26.0116 156.756 26.0116C156.203 26.0124 155.672 25.7937 155.281 25.4036C154.889 25.0134 154.668 24.4837 154.667 23.9309V13.0825V13.0825ZM164.974 7.76868C164.974 6.6163 165.909 5.68799 167.063 5.68799C168.219 5.68799 169.153 6.6163 169.153 7.76868V23.9293C169.153 25.0801 168.219 26.0116 167.063 26.0116C166.51 26.0124 165.98 25.7937 165.588 25.4036C165.196 25.0134 164.976 24.4837 164.974 23.9309V7.76708V7.76868ZM172.479 29.9281C171.874 29.7104 171.159 29.2158 171.159 28.2043C171.154 27.984 171.193 27.7649 171.274 27.5598C171.355 27.3547 171.475 27.1677 171.629 27.0096C171.782 26.8515 171.966 26.7254 172.168 26.6387C172.371 26.552 172.589 26.5064 172.809 26.5045C173.139 26.5045 173.331 26.559 173.496 26.615C173.852 26.7238 174.073 26.7798 174.376 26.7798C175.117 26.7798 175.475 26.6422 175.86 25.9027L175.997 25.573L170.968 13.9595C170.843 13.6537 170.768 13.3293 170.747 12.9992C170.747 11.8228 171.655 11.0018 172.809 11.0018C173.852 11.0018 174.457 11.5764 174.814 12.5623L178.004 21.1091L181.082 12.5895C181.412 11.714 182.015 11.0018 183.089 11.0018C184.16 11.0018 185.066 11.8228 185.066 12.9192C185.066 13.2473 184.957 13.7131 184.875 13.9051L179.734 26.2036C178.497 29.1886 177.262 30.3122 174.76 30.3122C173.825 30.3122 173.166 30.1762 172.479 29.9281Z" fill="white" fill-opacity="0.75"/>
</g>
<defs>
<clipPath id="clip0_218_62">
<rect width="186" height="36" fill="white"/>
</clipPath>
</defs>
</svg>
