<svg width="123" height="36" viewBox="0 0 123 36" fill="none" xmlns="http://www.w3.org/2000/svg">
<g clip-path="url(#clip0_218_42)">
<path d="M13.2803 6.19873V16.0438H4.27524V6.19873H0V29.6998H4.27524V20.1744H13.2803V29.6998H17.5555V6.19873H13.2803Z" fill="white" fill-opacity="0.75"/>
<path d="M31.2379 22.1026C31.2379 23.0444 30.8653 23.9477 30.202 24.6137C29.5387 25.2797 28.6391 25.6538 27.701 25.6538C26.763 25.6538 25.8634 25.2797 25.2001 24.6137C24.5368 23.9477 24.1642 23.0444 24.1642 22.1026V12.0367H20.1089V22.1026C20.1089 24.1224 20.908 26.0594 22.3304 27.4877C23.7529 28.9159 25.6821 29.7182 27.6937 29.7182C29.7053 29.7182 31.6346 28.9159 33.057 27.4877C34.4794 26.0594 35.2785 24.1224 35.2785 22.1026V12.0367H31.2379V22.1026Z" fill="white" fill-opacity="0.75"/>
<path d="M61.2849 13.0741C61.2849 11.0109 62.6444 10.3568 64.1337 10.3568C65.334 10.3568 66.9196 11.2738 67.9565 12.3863L70.6125 9.24417C69.2866 7.44384 66.597 6.19875 64.3955 6.19875C59.9967 6.19875 56.8149 8.78568 56.8149 13.0741C56.8149 21.0305 66.5007 18.5066 66.5007 22.9591C66.5007 24.3325 65.1727 25.546 63.6519 25.546C61.2535 25.546 60.4764 24.3682 59.3746 23.1231L56.4274 26.2001C58.3126 28.5241 60.6377 29.704 63.4236 29.704C67.6025 29.704 70.9644 27.0856 70.9644 22.9927C70.9644 14.1593 61.2787 16.904 61.2787 13.0741" fill="white" fill-opacity="0.75"/>
<path d="M121.205 25.9453C118.809 25.9453 118.128 24.9043 118.128 23.31V16.2538H121.853V12.6784H118.128V7.96094L114.016 9.81386V24.1871C114.016 27.8635 116.543 29.7164 120.007 29.7164C120.551 29.7263 121.094 29.6826 121.629 29.586L122.632 25.878C122.179 25.9096 121.66 25.9411 121.205 25.9411" fill="white" fill-opacity="0.75"/>
<path d="M46.6746 12.1554C44.6658 12.1554 43.2645 12.7401 41.9092 14.0756V6.34004H37.8476V20.6775C37.8476 26.0449 41.7123 29.7212 46.0546 29.7212C50.8723 29.7212 55.1099 25.9797 55.1099 20.9404C55.1099 15.9642 51.2096 12.1575 46.6746 12.1575V12.1554ZM46.6495 25.6179C45.738 25.6179 44.8471 25.3465 44.0892 24.8381C43.3314 24.3297 42.7407 23.607 42.392 22.7616C42.0432 21.9161 41.9519 20.9857 42.1297 20.0882C42.3075 19.1906 42.7464 18.3662 43.3909 17.7191C44.0354 17.072 44.8565 16.6313 45.7504 16.4528C46.6443 16.2742 47.5709 16.3659 48.413 16.7161C49.255 17.0663 49.9747 17.6593 50.4811 18.4202C50.9875 19.1812 51.2577 20.0757 51.2577 20.9909C51.2577 22.218 50.7722 23.3949 49.908 24.2627C49.0438 25.1304 47.8717 25.6179 46.6495 25.6179Z" fill="white" fill-opacity="0.75"/>
<path d="M90.7757 20.725C90.7757 15.6773 86.5466 11.9441 81.7205 11.9441C77.3782 11.9441 73.5135 15.6205 73.5135 20.9879V35.3337H77.5751V27.5877C78.9282 28.9211 80.3317 29.5079 82.3384 29.5079C86.8734 29.5079 90.7736 25.7032 90.7736 20.725H90.7757ZM86.9299 20.6745C86.9299 21.5896 86.6596 22.4842 86.1533 23.2451C85.6469 24.006 84.9272 24.5991 84.0851 24.9493C83.2431 25.2995 82.3165 25.3911 81.4226 25.2126C80.5287 25.0341 79.7076 24.5934 79.0631 23.9463C78.4186 23.2992 77.9797 22.4747 77.8019 21.5772C77.6241 20.6796 77.7153 19.7493 78.0641 18.9038C78.4129 18.0583 79.0036 17.3357 79.7614 16.8273C80.5192 16.3188 81.4102 16.0475 82.3216 16.0475C83.5438 16.0475 84.716 16.535 85.5802 17.4027C86.4444 18.2704 86.9299 19.4473 86.9299 20.6745Z" fill="white" fill-opacity="0.75"/>
<path d="M103.856 11.8786V7.82367C104.39 7.57338 104.842 7.17599 105.159 6.67777C105.477 6.17956 105.647 5.60104 105.649 5.00959V4.91495C105.647 4.08841 105.319 3.29637 104.737 2.71191C104.155 2.12746 103.366 1.79814 102.543 1.79592H102.449C101.625 1.79814 100.837 2.12746 100.255 2.71191C99.6725 3.29637 99.3445 4.08841 99.3423 4.91495V5.00959C99.3449 5.60104 99.5148 6.17956 99.8323 6.67777C100.15 7.17599 100.602 7.57338 101.135 7.82367V11.8786C99.6009 12.1142 98.1556 12.7527 96.946 13.7294L85.8567 5.06638C85.9357 4.78061 85.9779 4.48588 85.9824 4.18935C85.9832 3.49343 85.7785 2.81289 85.3942 2.23379C85.0098 1.65469 84.463 1.20304 83.823 0.935958C83.1829 0.668872 82.4784 0.598346 81.7985 0.733297C81.1185 0.868249 80.4937 1.20262 80.003 1.69412C79.5123 2.18562 79.1778 2.81218 79.0418 3.49457C78.9058 4.17695 78.9743 4.88452 79.2388 5.52778C79.5033 6.17105 79.9518 6.72112 80.5276 7.10845C81.1034 7.49577 81.7807 7.70295 82.4738 7.70378C83.0826 7.70151 83.6801 7.5383 84.2061 7.23057L95.1089 15.7527C94.1269 17.2403 93.6146 18.9907 93.6389 20.7752C93.6631 22.5597 94.2229 24.2954 95.2451 25.7555L91.9271 29.0869C91.6608 29.0018 91.3834 28.9564 91.1039 28.9523C90.5343 28.9523 89.9774 29.1219 89.5038 29.4397C89.0301 29.7575 88.661 30.2091 88.443 30.7375C88.225 31.266 88.1679 31.8474 88.2791 32.4084C88.3902 32.9694 88.6645 33.4847 89.0673 33.8891C89.4701 34.2935 89.9833 34.569 90.542 34.6805C91.1007 34.7921 91.6798 34.7349 92.2061 34.516C92.7324 34.2971 93.1822 33.9264 93.4987 33.4509C93.8152 32.9753 93.9841 32.4162 93.9841 31.8442C93.9802 31.5636 93.9351 31.285 93.85 31.0177L97.1324 27.722C98.2038 28.5437 99.4481 29.1088 100.77 29.374C102.092 29.6393 103.457 29.5978 104.761 29.2526C106.065 28.9074 107.273 28.2677 108.293 27.3823C109.313 26.4969 110.118 25.3892 110.646 24.1438C111.175 22.8984 111.413 21.5482 111.342 20.1963C111.272 18.8444 110.895 17.5265 110.24 16.3433C109.585 15.16 108.669 14.1427 107.563 13.3689C106.457 12.5951 105.189 12.0854 103.856 11.8786V11.8786ZM102.497 25.2171C101.599 25.2171 100.721 24.9496 99.9739 24.4486C99.2271 23.9476 98.645 23.2355 98.3013 22.4023C97.9576 21.5691 97.8676 20.6523 98.0429 19.7678C98.2181 18.8833 98.6506 18.0708 99.2857 17.4331C99.9208 16.7954 100.73 16.3612 101.611 16.1852C102.492 16.0093 103.405 16.0996 104.235 16.4447C105.065 16.7898 105.774 17.3743 106.273 18.1241C106.772 18.8739 107.038 19.7555 107.038 20.6573C107.038 21.8667 106.56 23.0264 105.708 23.8816C104.856 24.7367 103.701 25.2171 102.497 25.2171" fill="white" fill-opacity="0.75"/>
</g>
<defs>
<clipPath id="clip0_218_42">
<rect width="123" height="36" fill="white"/>
</clipPath>
</defs>
</svg>
