<svg viewBox="0 0 146 40" fill="none" xmlns="http://www.w3.org/2000/svg">
<path d="M0.226695 23.037L14.963 37.7733C7.43766 36.5013 1.49874 30.5623 0.226695 23.037Z" fill="white" fill-opacity="0.75"/>
<path d="M0 19.0363L18.9637 38C20.0915 37.9398 21.1917 37.7757 22.255 37.5174L0.482619 15.745C0.224257 16.8083 0.0602606 17.9085 0 19.0363Z" fill="white" fill-opacity="0.75"/>
<path d="M1.4266 12.9148L25.0853 36.5735C25.947 36.2037 26.774 35.7686 27.5602 35.2744L2.7257 10.4399C2.23153 11.2261 1.79642 12.0531 1.4266 12.9148Z" fill="white" fill-opacity="0.75"/>
<path d="M4.32844 8.26889C7.63183 4.43052 12.5256 2 17.987 2C27.9353 2 36 10.0647 36 20.013C36 25.4744 33.5695 30.3682 29.7311 33.6716L4.32844 8.26889Z" fill="white" fill-opacity="0.75"/>
<path d="M48 32.1971H63.0613V28.0871H52.9745V8.61978H48V32.1971ZM66.2636 32.1971H71.1578V14.5141H66.2636V32.1971ZM68.7221 12.4189C70.1468 12.4189 71.376 11.3367 71.376 9.93218C71.376 8.53919 70.1468 7.45703 68.7221 7.45703C67.3091 7.45703 66.0799 8.53919 66.0799 9.93218C66.0799 11.3367 67.3091 12.4189 68.7221 12.4189ZM79.9723 21.9741C79.9836 19.6947 81.3393 18.3592 83.3153 18.3592C85.2799 18.3592 86.4633 19.6486 86.4518 21.8129V32.1971H91.3458V20.938C91.3458 16.8166 88.9333 14.2839 85.2569 14.2839C82.6375 14.2839 80.7419 15.5732 79.9493 17.6339H79.7424V14.5141H75.0781V32.1971H79.9723V21.9741ZM103.291 32.5425C107.668 32.5425 110.598 30.4126 111.287 27.1316L106.772 26.8323C106.278 28.1793 105.003 28.8815 103.383 28.8815C100.936 28.8815 99.3847 27.2582 99.3847 24.6219V24.6104H111.402V23.2635C111.402 17.254 107.771 14.2839 103.107 14.2839C97.9142 14.2839 94.5482 17.9793 94.5482 23.4362C94.5482 29.0427 97.8684 32.5425 103.291 32.5425ZM99.3847 21.5712C99.4768 19.5565 101.016 17.9448 103.187 17.9448C105.301 17.9448 106.772 19.4644 106.795 21.5712H99.3847ZM119.696 32.531C122.304 32.531 123.993 31.3913 124.855 29.7449H124.992V32.1971H129.634V20.2703C129.634 16.0567 126.038 14.2839 122.224 14.2839C117.881 14.2839 115.135 16.31 114.458 19.5335L118.984 19.9019C119.317 18.7276 120.363 17.8642 122.12 17.8642C123.809 17.8642 124.728 18.6931 124.74 20.1782C124.751 21.3409 123.533 21.5136 120.466 21.8129C116.973 22.1353 113.837 23.3095 113.837 27.2582C113.837 30.758 116.33 32.531 119.696 32.531ZM121.098 29.1463C119.593 29.1463 118.513 28.444 118.513 27.097C118.513 25.7156 119.65 25.0363 121.374 24.7946C122.442 24.645 124.188 24.3917 124.774 24.0003V25.8768C124.774 27.7303 123.246 29.1463 121.098 29.1463ZM133.431 32.1971H138.325V22.1928C138.336 20.0285 139.899 18.5434 141.875 18.5434C142.541 18.5434 143.081 18.7276 143.54 18.9579L145.011 14.9055C144.368 14.5141 143.54 14.2608 142.598 14.2608C140.611 14.2608 139.003 15.4121 138.359 17.5994H138.175V14.5141H133.431V32.1971Z" fill="white" fill-opacity="0.75"/>
</svg>
