<svg width="145" height="36" viewBox="0 0 145 36" fill="none" xmlns="http://www.w3.org/2000/svg">
<g clip-path="url(#clip0_218_55)">
<path d="M45.4811 28.4676L47.2417 24.3498C49.1695 25.7783 51.6839 26.5344 54.1989 26.5344C56.0431 26.5344 57.2165 25.8204 57.2165 24.7281C57.1744 21.7027 46.1098 24.0557 46.0257 16.4493C45.9836 12.5835 49.4207 9.60011 54.2831 9.60011C57.1744 9.60011 60.0669 10.3147 62.1203 11.9537L60.4751 16.1593C58.5858 14.9437 56.2523 14.0962 54.0312 14.0962C52.5224 14.0962 51.5162 14.8102 51.5162 15.7353C51.5582 18.7187 62.7076 17.0796 62.8332 24.3498C62.8332 28.2998 59.4796 31.0732 54.7014 31.0732C51.1814 31.0732 47.954 30.233 45.4805 28.4676H45.4811ZM115.587 22.8587C115.142 23.6489 114.496 24.3065 113.714 24.7642C112.932 25.2218 112.042 25.4631 111.136 25.4632C108.312 25.4632 106.023 23.1679 106.023 20.3367C106.023 17.5055 108.312 15.2102 111.136 15.2102C112.042 15.2103 112.932 15.4515 113.714 15.9092C114.496 16.3669 115.142 17.0245 115.587 17.8146L120.482 15.0959C118.648 11.8172 115.151 9.60011 111.136 9.60011C105.221 9.60011 100.427 14.4066 100.427 20.3367C100.427 26.2661 105.221 31.0732 111.136 31.0732C115.151 31.0732 118.648 28.8562 120.482 25.5774L115.587 22.8587ZM66.0094 30.6528H72.1287V0.662598H66.01L66.0094 30.6528ZM123.572 0.662598V30.6528H129.691V21.6678L136.942 30.6528H144.764L135.543 19.9788L144.093 10.0187H136.607L129.691 18.2994V0.662598H123.572ZM90.9812 10.0199V12.4578C89.9755 10.7766 87.5026 9.60011 84.904 9.60011C79.5391 9.60011 75.3061 14.3489 75.3061 20.3156C75.3061 26.2824 79.5391 31.0732 84.904 31.0732C87.5026 31.0732 89.9755 29.8967 90.9812 28.2156V30.6528H97.1004V10.0199H90.9812ZM90.9812 22.9002C90.1011 24.3709 88.257 25.4626 86.2036 25.4626C83.379 25.4626 81.09 23.1679 81.09 20.3367C81.09 17.5055 83.379 15.2102 86.2036 15.2102C88.257 15.2102 90.1011 16.3446 90.9812 17.8567V22.9002Z" fill="white" fill-opacity="0.75"/>
<path d="M13.1654 0C11.1824 0 9.57501 1.61199 9.57501 3.59991C9.57454 4.07218 9.66703 4.53992 9.84721 4.97642C10.0274 5.41293 10.2917 5.80965 10.6251 6.14393C10.9585 6.47821 11.3545 6.74351 11.7903 6.92468C12.2262 7.10585 12.6934 7.19934 13.1654 7.19981H16.7564V3.59991C16.7572 2.64605 16.3794 1.73094 15.7059 1.05585C15.0325 0.38075 14.1187 0.00095671 13.1654 0V0ZM13.1654 9.59975H3.5904C1.60736 9.59975 0 11.2117 0 13.2003C0 15.1882 1.60736 16.8002 3.5904 16.8002H13.166C15.1485 16.8002 16.7564 15.1882 16.7564 13.2003C16.7564 11.2117 15.1485 9.59975 13.1654 9.59975" fill="white" fill-opacity="0.75"/>
<path d="M35.9068 13.2003C35.9068 11.2117 34.2989 9.59975 32.3158 9.59975C30.3328 9.59975 28.7254 11.2117 28.7254 13.2003V16.8002H32.3158C33.2691 16.7992 34.1829 16.4194 34.8563 15.7443C35.5297 15.0692 35.9076 14.1541 35.9068 13.2003V13.2003ZM26.3318 13.2003V3.59991C26.3326 2.64605 25.9547 1.73094 25.2813 1.05585C24.6079 0.38075 23.694 0.00095671 22.7408 0C20.7577 0 19.1504 1.61199 19.1504 3.59991V13.1997C19.1504 15.1888 20.7577 16.8008 22.7408 16.8008C23.694 16.7998 24.6079 16.42 25.2813 15.7449C25.9547 15.0698 26.3326 14.1547 26.3318 13.2009" fill="white" fill-opacity="0.75"/>
<path d="M22.7408 35.9999C23.694 35.9989 24.6079 35.6191 25.2813 34.944C25.9547 34.2689 26.3326 33.3538 26.3318 32.4C26.3326 31.4461 25.9547 30.531 25.2813 29.8559C24.6079 29.1808 23.694 28.801 22.7408 28.8001H19.1504V32.4C19.1504 34.3879 20.7577 35.9999 22.7408 35.9999ZM22.7408 26.4001H32.3164C34.2989 26.4001 35.9068 24.7881 35.9068 22.7996C35.9076 21.8458 35.5297 20.9306 34.8563 20.2556C34.1829 19.5805 33.2691 19.2007 32.3158 19.1997H22.7408C20.7577 19.1997 19.1504 20.8117 19.1504 22.7996C19.1499 23.2719 19.2424 23.7396 19.4226 24.1761C19.6028 24.6126 19.8671 25.0094 20.2005 25.3436C20.5339 25.6779 20.9298 25.9432 21.3657 26.1244C21.8016 26.3056 22.2688 26.399 22.7408 26.3995" fill="white" fill-opacity="0.75"/>
<path d="M1.81163e-06 22.7996C-0.000472056 23.2719 0.0920206 23.7396 0.272199 24.1761C0.452377 24.6126 0.716713 25.0094 1.05011 25.3436C1.38351 25.6779 1.77945 25.9432 2.21531 26.1244C2.65118 26.3056 3.11843 26.399 3.59041 26.3995C4.54365 26.3986 5.45749 26.0188 6.13091 25.3437C6.80434 24.6686 7.18221 23.7535 7.18141 22.7996V19.1997H3.59041C1.60736 19.1997 1.81163e-06 20.8117 1.81163e-06 22.7996V22.7996ZM9.57502 22.7996V32.3994C9.57502 34.3879 11.1824 35.9999 13.1654 35.9999C14.1187 35.9989 15.0325 35.6191 15.7059 34.944C16.3794 34.2689 16.7572 33.3538 16.7564 32.4V22.7996C16.7569 22.3273 16.6644 21.8595 16.4842 21.423C16.304 20.9864 16.0396 20.5897 15.7061 20.2554C15.3726 19.9211 14.9766 19.6558 14.5407 19.4747C14.1048 19.2935 13.6374 19.2001 13.1654 19.1997C11.1824 19.1997 9.57502 20.8117 9.57502 22.7996Z" fill="white" fill-opacity="0.75"/>
</g>
<defs>
<clipPath id="clip0_218_55">
<rect width="145" height="36" fill="white"/>
</clipPath>
</defs>
</svg>
