<svg viewBox="0 0 120 36" fill="none" xmlns="http://www.w3.org/2000/svg">
<g clip-path="url(#clip0_218_51)">
<path d="M17.9955 0C8.05706 0 0 8.05901 0 18.0001C0 27.9416 8.05706 36 17.9955 36C27.935 36 35.9912 27.9416 35.9912 18.0001C35.9912 8.05966 27.935 0.000859784 17.9953 0.000859784L17.9955 0V0ZM26.2481 25.9613C25.9258 26.4901 25.2338 26.6578 24.7052 26.3332C20.48 23.7517 15.1611 23.167 8.89706 24.5986C8.29344 24.7361 7.69175 24.3578 7.55422 23.7538C7.41605 23.1498 7.79275 22.548 8.39787 22.4104C15.2528 20.8439 21.1329 21.5184 25.8763 24.418C26.405 24.7426 26.5726 25.4326 26.2481 25.9613V25.9613ZM28.4507 21.0601C28.0446 21.7204 27.1807 21.9289 26.521 21.5227C21.6838 18.5487 14.3103 17.6874 8.58891 19.4246C7.8469 19.6488 7.0632 19.2305 6.83799 18.4895C6.61451 17.7473 7.0329 16.9649 7.77362 16.7392C14.3091 14.7557 22.4338 15.7165 27.9887 19.1309C28.6484 19.5372 28.8568 20.4013 28.4507 21.0603V21.0601ZM28.6398 15.9564C22.8399 12.5106 13.2709 12.1937 7.73344 13.8748C6.84423 14.1446 5.90387 13.6425 5.6344 12.753C5.36493 11.8632 5.86648 10.9232 6.75634 10.6528C13.113 8.72256 23.6802 9.09549 30.3576 13.0606C31.1592 13.5354 31.4213 14.5687 30.9464 15.3677C30.4737 16.1677 29.4379 16.4314 28.6407 15.9564H28.6398ZM48.9597 16.6167C45.8524 15.8756 45.3002 15.3554 45.3002 14.2624C45.3002 13.2298 46.2715 12.5349 47.7177 12.5349C49.1188 12.5349 50.5069 13.0626 51.9639 14.1489C52.0069 14.1818 52.0627 14.1949 52.1165 14.1863C52.1723 14.1781 52.2196 14.1483 52.2518 14.1033L53.769 11.9642C53.8313 11.876 53.8141 11.7546 53.7303 11.6873C51.9961 10.296 50.0449 9.61953 47.7628 9.61953C44.4084 9.61953 42.0639 11.6334 42.0639 14.5147C42.0639 17.6046 44.086 18.6987 47.5801 19.5432C50.5521 20.2282 51.0549 20.8022 51.0549 21.8279C51.0549 22.965 50.0406 23.6721 48.4075 23.6721C46.5938 23.6721 45.1132 23.0595 43.4586 21.628C43.4177 21.5914 43.3619 21.5764 43.3103 21.5785C43.2544 21.5828 43.205 21.6086 43.1706 21.6495L41.4687 23.6743C41.3978 23.7603 41.4064 23.8849 41.488 23.958C43.4134 25.6776 45.7815 26.5847 48.3387 26.5847C51.9531 26.5847 54.289 24.6093 54.289 21.5506C54.2954 18.9697 52.7504 17.5403 48.9662 16.6195L48.9597 16.6167V16.6167ZM62.4677 13.5516C60.9011 13.5516 59.6161 14.1689 58.5545 15.4339V14.01C58.5545 13.8976 58.4643 13.8061 58.3526 13.8061H55.5697C55.458 13.8061 55.3677 13.8976 55.3677 14.01V29.8304C55.3677 29.9421 55.458 30.0346 55.5697 30.0346H58.3526C58.4643 30.0346 58.5545 29.9421 58.5545 29.8304V24.8371C59.6161 26.0258 60.9011 26.6083 62.4677 26.6083C65.3794 26.6083 68.3277 24.3664 68.3277 20.0806C68.332 15.7939 65.3837 13.5513 62.4698 13.5513L62.4677 13.5516ZM65.0915 20.0806C65.0915 22.2621 63.7484 23.7861 61.823 23.7861C59.9212 23.7861 58.4858 22.1933 58.4858 20.0806C58.4858 17.9677 59.9212 16.3753 61.823 16.3753C63.7162 16.3751 65.0915 17.933 65.0915 20.0804V20.0806ZM75.8811 13.5516C72.1313 13.5516 69.1937 16.4396 69.1937 20.1272C69.1937 23.7753 72.1119 26.632 75.8359 26.632C79.5987 26.632 82.5448 23.7538 82.5448 20.0806C82.5448 16.4198 79.618 13.552 75.8811 13.552V13.5516V13.5516ZM75.8811 23.8076C73.8869 23.8076 72.3827 22.204 72.3827 20.0795C72.3827 17.9453 73.8353 16.3966 75.8359 16.3966C77.843 16.3966 79.3558 17.9995 79.3558 20.1262C79.3558 22.2599 77.8946 23.8076 75.8811 23.8076V23.8076ZM90.5516 13.8061H87.4894V10.6751C87.4894 10.5629 87.3991 10.4714 87.2874 10.4714H84.5046C84.3928 10.4714 84.3004 10.5629 84.3004 10.6751V13.8061H82.9638C82.8521 13.8061 82.7618 13.8976 82.7618 14.01V16.4018C82.7618 16.514 82.8521 16.6057 82.9638 16.6057H84.3004V22.7952C84.3004 25.295 85.5446 26.5632 88.0008 26.5632C88.9979 26.5632 89.8252 26.3568 90.6053 25.914C90.6698 25.8796 90.7084 25.8109 90.7084 25.7378V23.4593C90.7084 23.3906 90.6719 23.3239 90.6117 23.2874C90.5516 23.2487 90.4764 23.2465 90.414 23.2788C89.879 23.5475 89.3611 23.6721 88.7809 23.6721C87.8891 23.6721 87.4894 23.2659 87.4894 22.3588V16.6068H90.5516C90.6633 16.6068 90.7536 16.5153 90.7536 16.4028V14.0113C90.7579 13.8989 90.6676 13.8073 90.5537 13.8073L90.5516 13.8061V13.8061ZM101.219 13.8183V13.4338C101.219 12.3025 101.653 11.798 102.624 11.798C103.204 11.798 103.671 11.9132 104.193 12.0873C104.257 12.1075 104.324 12.0974 104.375 12.059C104.429 12.0205 104.459 11.9588 104.459 11.8935V9.54838C104.459 9.45875 104.403 9.37944 104.315 9.353C103.765 9.18899 103.06 9.02069 102.003 9.02069C99.4351 9.02069 98.0748 10.4681 98.0748 13.2051V13.794H96.7382C96.6265 13.794 96.5341 13.8856 96.5341 13.9978V16.4018C96.5341 16.514 96.6265 16.6057 96.7382 16.6057H98.0748V26.1505C98.0748 26.2644 98.1672 26.3547 98.279 26.3547H101.06C101.174 26.3547 101.264 26.2644 101.264 26.1505V16.6064H103.862L107.842 26.1505C107.39 27.1521 106.945 27.352 106.339 27.352C105.85 27.352 105.332 27.2059 104.805 26.9157C104.756 26.8899 104.696 26.8856 104.644 26.9006C104.59 26.92 104.545 26.9587 104.524 27.0103L103.58 29.0802C103.535 29.1791 103.574 29.293 103.668 29.3446C104.653 29.8777 105.54 30.1055 106.638 30.1055C108.693 30.1055 109.829 29.1468 110.829 26.5718L115.655 14.0969C115.681 14.0341 115.672 13.9632 115.633 13.9075C115.597 13.8523 115.535 13.819 115.468 13.819H112.571C112.483 13.819 112.406 13.8742 112.378 13.9557L109.41 22.4319L106.161 13.9501C106.131 13.8712 106.056 13.819 105.972 13.819H101.219V13.8183V13.8183ZM95.0342 13.8061H92.2513C92.1396 13.8061 92.0472 13.8976 92.0472 14.01V26.1505C92.0472 26.2644 92.1396 26.3547 92.2513 26.3547H95.0342C95.1459 26.3547 95.2383 26.2644 95.2383 26.1505V14.0109C95.2383 13.8985 95.148 13.8069 95.0342 13.8069V13.8061ZM93.6589 8.27783C92.5565 8.27783 91.6625 9.17029 91.6625 10.2728C91.6625 11.3759 92.5565 12.2694 93.6589 12.2694C94.7612 12.2694 95.653 11.3759 95.653 10.2728C95.653 9.17051 94.7591 8.27783 93.6589 8.27783ZM118.032 17.7097C116.931 17.7097 116.074 16.8252 116.074 15.7511C116.074 14.677 116.942 13.7824 118.042 13.7824C119.143 13.7824 120 14.6667 120 15.7399C120 16.814 119.132 17.7097 118.032 17.7097ZM118.042 13.9772C117.039 13.9772 116.28 14.7746 116.28 15.7511C116.28 16.7272 117.035 17.5139 118.032 17.5139C119.035 17.5139 119.794 16.7171 119.794 15.7399C119.794 14.7639 119.039 13.9772 118.042 13.9772V13.9772ZM118.476 15.9413L119.031 16.7169H118.562L118.064 16.0054H117.636V16.7169H117.245V14.6611H118.161C118.64 14.6611 118.953 14.9055 118.953 15.3169C118.956 15.654 118.76 15.8599 118.479 15.9413H118.476ZM118.146 15.0138H117.636V15.6641H118.146C118.399 15.6641 118.552 15.5396 118.552 15.3386C118.552 15.1271 118.399 15.0138 118.146 15.0138V15.0138Z" fill="white" fill-opacity="0.75"/>
</g>
<defs>
<clipPath id="clip0_218_51">
<rect width="120" height="36" fill="white"/>
</clipPath>
</defs>
</svg>
