<svg viewBox="0 0 87 36" fill="none" xmlns="http://www.w3.org/2000/svg">
<g clip-path="url(#clip0_218_40)">
<path fill-rule="evenodd" clip-rule="evenodd" d="M86.245 18.4717C86.245 12.3622 83.2744 7.54144 77.5966 7.54144C71.8948 7.54144 68.445 12.3622 68.445 18.4239C68.445 25.6073 72.5177 29.2348 78.3632 29.2348C81.2141 29.2348 83.3702 28.5905 84.9992 27.6836V22.9106C83.3702 23.722 81.5015 24.2232 79.1298 24.2232C76.806 24.2232 74.7457 23.4117 74.4822 20.5957H86.1971C86.1971 20.2854 86.245 19.0444 86.245 18.4717ZM74.4103 16.2045C74.4103 13.5077 76.0633 12.3861 77.5726 12.3861C79.034 12.3861 80.5912 13.5077 80.5912 16.2045H74.4103Z" fill="white" fill-opacity="0.75"/>
<path fill-rule="evenodd" clip-rule="evenodd" d="M59.1975 7.54143C56.8497 7.54143 55.3404 8.63922 54.5019 9.40291L54.1905 7.92327H48.92V35.75L54.9092 34.4851L54.9331 27.7313C55.7956 28.3518 57.0653 29.2348 59.1735 29.2348C63.4618 29.2348 67.3668 25.7982 67.3668 18.233C67.3428 11.3121 63.3899 7.54143 59.1975 7.54143ZM57.7601 23.9845C56.3466 23.9845 55.5081 23.4833 54.9331 22.8628L54.9092 14.0089C55.5321 13.3168 56.3945 12.8395 57.7601 12.8395C59.9401 12.8395 61.4494 15.2737 61.4494 18.4001C61.4494 21.598 59.9641 23.9845 57.7601 23.9845Z" fill="white" fill-opacity="0.75"/>
<path fill-rule="evenodd" clip-rule="evenodd" d="M40.6787 6.13334L46.6918 4.84462V0L40.6787 1.26485V6.13334Z" fill="white" fill-opacity="0.75"/>
<path d="M46.6918 7.9471H40.6787V28.8291H46.6918V7.9471Z" fill="white" fill-opacity="0.75"/>
<path fill-rule="evenodd" clip-rule="evenodd" d="M34.234 9.71311L33.8507 7.94709H28.676V28.8291H34.6652V14.6771C36.0787 12.8394 38.4744 13.1736 39.217 13.4361V7.94709C38.4504 7.66071 35.6475 7.13568 34.234 9.71311Z" fill="white" fill-opacity="0.75"/>
<path fill-rule="evenodd" clip-rule="evenodd" d="M22.2557 2.76833L16.4102 4.00932L16.3863 23.1253C16.3863 26.6573 19.0455 29.2586 22.5911 29.2586C24.5556 29.2586 25.993 28.9006 26.7836 28.4711V23.6264C26.017 23.9367 22.2318 25.0345 22.2318 21.5024V13.0303H26.7836V7.94706H22.2318L22.2557 2.76833Z" fill="white" fill-opacity="0.75"/>
<path fill-rule="evenodd" clip-rule="evenodd" d="M6.0611 14.0089C6.0611 13.0782 6.82772 12.7202 8.09744 12.7202C9.91816 12.7202 12.218 13.2691 14.0388 14.2475V8.63924C12.0503 7.85169 10.0859 7.54144 8.09744 7.54144C3.23418 7.54144 0 10.0711 0 14.2953C0 20.882 9.10363 19.832 9.10363 22.6719C9.10363 23.7697 8.14535 24.1277 6.80376 24.1277C4.81534 24.1277 2.27591 23.3163 0.263526 22.2185V27.8984C2.49152 28.853 4.74347 29.2587 6.80376 29.2587C11.7868 29.2587 15.2126 26.8006 15.2126 22.5287C15.1887 15.4169 6.0611 16.6818 6.0611 14.0089Z" fill="white" fill-opacity="0.75"/>
</g>
<defs>
<clipPath id="clip0_218_40">
<rect width="87" height="35.75" fill="white"/>
</clipPath>
</defs>
</svg>
