<svg width="25" height="20" viewBox="0 0 25 20" fill="none" xmlns="http://www.w3.org/2000/svg">
<g clip-path="url(#clip0_149_242)">
<path d="M7.49478 0.0126953L-0.0126953 5.00646H12.4872V0.0126953H7.49478Z" fill="#B5F1F4"/>
<path d="M17.5049 0.0126953H12.4873V5.00646H25.0124L17.5049 0.0126953Z" fill="#B5F1F4"/>
<path d="M25.0124 5.00635H12.4873V19.9725L12.4999 19.9877L25.0124 5.00635Z" fill="#7BD4EF"/>
<path d="M-0.0126953 5.00635L12.4872 19.9725V5.00635H-0.0126953Z" fill="#84DBFF"/>
<path d="M17.5047 5.00646L12.4996 0.0126953L7.49463 5.00646H17.5047Z" fill="#84DBFF"/>
<path d="M12.4999 0.0126953L12.4873 0.0252485V5.00646H17.5049L12.4999 0.0126953Z" fill="#7BD4EF"/>
<path d="M7.49512 5.00635L12.5001 19.9877L17.5051 5.00635H7.49512Z" fill="#31BAFD"/>
<path d="M17.5049 5.00635H12.4873V19.95L12.4999 19.9877L17.5049 5.00635Z" fill="#2B9ED8"/>
<path d="M7.49478 0.0126953V5.00646H-0.0126953L7.49478 0.0126953Z" fill="#31BAFD"/>
<path d="M17.5049 0.0126953V5.00646H25.0124L17.5049 0.0126953Z" fill="#2B9ED8"/>
</g>
<defs>
<clipPath id="clip0_149_242">
<rect width="25" height="20" fill="white"/>
</clipPath>
</defs>
</svg>
