<svg width="25" height="17" viewBox="0 0 25 17" fill="none" xmlns="http://www.w3.org/2000/svg">
<path d="M23.3348 0.506249C23.1899 0.450791 22.9591 0.334868 22.6844 0.26593C22.4092 0.192564 22.0376 0.068939 21.6587 0.0385141C21.276 0.000771867 20.8434 -0.0107819 20.3691 0.0107851C19.9088 0.0464092 19.4385 0.139609 18.9366 0.263235C18.4341 0.38686 17.9742 0.591746 17.4847 0.815889C17.0057 1.04831 16.5695 1.33696 16.1326 1.65277C15.7179 1.978 15.3268 2.33906 14.9684 2.72168C14.6343 3.11509 14.3022 3.52062 14.0461 3.95235C13.7819 4.38234 13.5546 4.8235 13.3896 5.27564C13.0381 6.17048 12.8979 7.09169 12.8831 7.91143C12.8845 8.32756 12.9103 8.71307 12.965 9.06893C13.0116 9.42016 13.1046 9.74694 13.1763 10.01C13.2061 10.1346 13.2468 10.2518 13.2863 10.3574C13.3564 10.2164 13.4334 10.0668 13.5191 9.90523C13.9442 9.1032 14.564 8.06048 15.2879 7.08361C15.6484 6.59431 16.0435 6.13004 16.4307 5.7089C16.6345 5.50652 16.8315 5.3128 17.0185 5.12794C17.2182 4.95656 17.4083 4.79462 17.5815 4.64557C17.7687 4.51116 17.942 4.38889 18.0946 4.2799C18.2402 4.16417 18.3942 4.09696 18.5093 4.02802C18.7435 3.89631 18.8766 3.82083 18.8766 3.82083C18.8766 3.82083 18.7498 3.90575 18.5271 4.05441C18.4189 4.13239 18.2747 4.20865 18.1381 4.33458C17.9975 4.4532 17.8384 4.58588 17.6644 4.73184C17.5049 4.89167 17.3329 5.0644 17.15 5.24714C16.9822 5.44163 16.8055 5.6469 16.6224 5.85872C16.2779 6.29988 15.9298 6.78263 15.6178 7.28734C14.9889 8.29252 14.4702 9.35565 14.1213 10.1661C14.0672 10.2919 14.0188 10.408 13.9744 10.518C13.5499 11.4519 13.3228 12.4164 13.2099 13.3088C12.9269 12.4388 12.5133 11.5137 11.9063 10.6558C11.8411 10.5549 12.4544 10.2507 12.5512 10.377C12.5703 10.2671 12.5873 10.1438 12.5926 10.0173C12.6122 9.74655 12.6406 9.40976 12.6191 9.05526C12.6043 8.69747 12.5547 8.31196 12.476 7.90335C12.3028 7.10036 11.9875 6.21862 11.4684 5.40061C11.2192 4.98583 10.9102 4.59031 10.5682 4.21443C10.2329 3.8345 9.82767 3.49386 9.42345 3.16496C8.99675 2.85128 8.54249 2.56532 8.07303 2.31691C7.58189 2.08276 7.09744 1.87575 6.58118 1.73056C6.05661 1.59577 5.56507 1.47407 5.04678 1.44056C4.5291 1.4059 4.05012 1.39704 3.58998 1.44249C3.11768 1.50449 2.69462 1.59076 2.32526 1.69494C1.95913 1.79141 1.61692 1.97627 1.36182 2.09681C1.10491 2.2137 0.900471 2.36775 0.768974 2.44843C0.636059 2.53682 0.564941 2.59748 0.564941 2.59748C0.564941 2.59748 0.608301 2.67662 0.689347 2.82624C0.773027 2.95507 0.88102 3.18268 1.02285 3.39295C1.15354 3.60651 1.31056 3.86666 1.49028 4.1659C1.65987 4.45648 1.84466 4.75264 2.03775 5.04379C2.23165 5.34072 2.43203 5.66654 2.64822 5.95288C2.86421 6.24346 3.08932 6.56542 3.3363 6.83405C3.82339 7.40962 4.38504 7.93608 5.01679 8.41152C5.32841 8.66127 5.67164 8.86558 6.01446 9.08626C6.36012 9.29904 6.7301 9.48255 7.1021 9.66163C7.482 9.82955 7.86271 9.99169 8.25579 10.1222C8.65149 10.2528 9.03565 10.3766 9.42305 10.4716C9.8066 10.569 10.1831 10.6474 10.5322 10.7082C10.7706 10.7548 11.0014 10.7827 11.2164 10.8083C13.1664 13.4027 13.1734 16.8612 13.1734 16.9045L13.282 16.9053C13.2908 16.9507 13.2968 16.9869 13.2997 17L13.7888 16.9097H13.8186C13.8186 16.9083 13.8186 16.9045 13.8186 16.9039L13.9337 16.8829C13.9245 16.8392 13.264 13.4384 14.6791 10.5488C14.887 10.4848 15.1076 10.4182 15.3335 10.3306C15.665 10.2085 16.02 10.067 16.3778 9.90407C16.7403 9.74405 17.0946 9.55496 17.4573 9.35777C17.8184 9.1602 18.1624 8.9349 18.5022 8.70287C18.8337 8.46158 19.1623 8.21838 19.461 7.94802C19.7556 7.67092 20.0532 7.41096 20.3118 7.11076C20.8414 6.53384 21.2914 5.91764 21.6589 5.26794C21.8494 4.96138 22.0091 4.60475 22.1643 4.28201C22.3223 3.96198 22.4562 3.60728 22.5887 3.28204C22.7225 2.96277 22.8465 2.63888 22.9575 2.32346C23.0768 1.99899 23.181 1.71554 23.2681 1.48293C23.3672 1.25127 23.4298 1.00922 23.4865 0.867496C23.5372 0.707091 23.5649 0.621786 23.5649 0.621786C23.5649 0.621786 23.4833 0.571142 23.3348 0.506249ZM5.51603 5.42218L7.43459 5.41948L4.71449 3.37736L5.85055 3.37736L9.78897 6.20398L7.88318 6.20398L10.6148 8.80069L5.51603 5.42218Z" fill="#CDCDDD"/>
</svg>
