<svg width="44" height="44" viewBox="0 0 44 44" fill="none" xmlns="http://www.w3.org/2000/svg">
<path d="M22.0436 0H21.9434C9.82442 0 0 9.82731 0 21.9499V22.0501C0 34.1727 9.82442 44 21.9434 44H22.0436C34.1626 44 43.987 34.1727 43.987 22.0501V21.9499C43.987 9.82731 34.1626 0 22.0436 0Z" fill="url(#paint0_linear_149_299)"/>
<path d="M28.7997 8.95215H15.1889C11.4287 8.95215 8.36963 12.0121 8.36963 15.7734V28.229C8.36963 31.9904 11.4287 35.0503 15.1889 35.0503H28.7997C32.56 35.0503 35.619 31.9904 35.619 28.229V15.7734C35.619 12.0121 32.56 8.95215 28.7997 8.95215ZM10.7753 15.7734C10.7753 13.3394 12.7555 11.3585 15.1889 11.3585H28.7997C31.2331 11.3585 33.2134 13.3394 33.2134 15.7734V28.229C33.2134 30.6631 31.2331 32.644 28.7997 32.644H15.1889C12.7555 32.644 10.7753 30.6631 10.7753 28.229V15.7734Z" fill="white"/>
<path d="M21.9945 28.3452C25.4912 28.3452 28.3375 25.4995 28.3375 22.0002C28.3375 18.5009 25.4927 15.6553 21.9945 15.6553C18.4962 15.6553 15.6514 18.5009 15.6514 22.0002C15.6514 25.4995 18.4962 28.3452 21.9945 28.3452ZM21.9945 18.0631C24.1658 18.0631 25.9319 19.8297 25.9319 22.0018C25.9319 24.1738 24.1658 25.9404 21.9945 25.9404C19.8231 25.9404 18.057 24.1738 18.057 22.0018C18.057 19.8297 19.8231 18.0631 21.9945 18.0631Z" fill="white"/>
<path d="M28.9244 16.6808C29.866 16.6808 30.6334 15.9147 30.6334 14.9713C30.6334 14.0279 29.8675 13.2617 28.9244 13.2617C27.9812 13.2617 27.2153 14.0279 27.2153 14.9713C27.2153 15.9147 27.9812 16.6808 28.9244 16.6808Z" fill="white"/>
<defs>
<linearGradient id="paint0_linear_149_299" x1="6.4263" y1="37.5718" x2="37.5699" y2="6.43891" gradientUnits="userSpaceOnUse">
<stop stop-color="#FAAD4F"/>
<stop offset="0.35" stop-color="#DD2A7B"/>
<stop offset="0.62" stop-color="#9537B0"/>
<stop offset="1" stop-color="#515BD4"/>
</linearGradient>
</defs>
</svg>
