<svg width="44" height="44" viewBox="0 0 44 44" fill="none" xmlns="http://www.w3.org/2000/svg">
<path d="M22.0436 0H21.9435C9.82443 0 0 9.82731 0 21.9499V22.0501C0 34.1727 9.82443 44 21.9435 44H22.0436C34.1626 44 43.9871 34.1727 43.9871 22.0501V21.9499C43.9871 9.82731 34.1626 0 22.0436 0Z" fill="#007EBB"/>
<path d="M10.4902 14.6251C9.91072 14.0871 9.62256 13.4212 9.62256 12.6288C9.62256 11.8365 9.91226 11.1412 10.4902 10.6017C11.0696 10.0637 11.8155 9.79395 12.7294 9.79395C13.6432 9.79395 14.3598 10.0637 14.9377 10.6017C15.5172 11.1397 15.8054 11.8164 15.8054 12.6288C15.8054 13.4412 15.5156 14.0871 14.9377 14.6251C14.3583 15.1631 13.6232 15.4329 12.7294 15.4329C11.8355 15.4329 11.0696 15.1631 10.4902 14.6251ZM15.3184 17.7113V34.2057H10.108V17.7113H15.3184Z" fill="#FEFFFC"/>
<path d="M32.6632 19.343C33.7989 20.5762 34.3661 22.2688 34.3661 24.4239V33.9167H29.4177V25.0929C29.4177 24.0061 29.1357 23.1614 28.5732 22.5602C28.0107 21.959 27.2525 21.6568 26.3031 21.6568C25.3538 21.6568 24.5956 21.9574 24.0331 22.5602C23.4706 23.1614 23.1886 24.0061 23.1886 25.0929V33.9167H18.2109V17.6674H23.1886V19.8224C23.6925 19.1041 24.3722 18.5368 25.2259 18.119C26.0797 17.7013 27.0398 17.4932 28.1077 17.4932C30.0094 17.4932 31.5289 18.1098 32.6632 19.343Z" fill="#FEFFFC"/>
</svg>
