<svg width="132" height="24" viewBox="0 0 132 24" fill="none" xmlns="http://www.w3.org/2000/svg">
<path d="M26.9546 22.7428V10.4009H31.2997V22.7428H26.9546Z" fill="#CDCDDD"/>
<path d="M39.2206 13.3707V22.7429H34.8755V6.54832H38.9744L39.047 10.5893H38.786C39.2112 9.23706 39.8552 8.19208 40.7202 7.45334C41.5842 6.71459 42.7018 6.34521 44.074 6.34521C45.1937 6.34521 46.1724 6.58936 47.0069 7.0766C47.8425 7.56488 48.4886 8.26469 48.9475 9.17708C49.4063 10.0895 49.6357 11.1786 49.6357 12.4436V22.7429H45.2906V13.197C45.2906 12.1931 45.0317 11.4059 44.516 10.8356C43.9993 10.2663 43.2827 9.98107 42.365 9.98107C41.7568 9.98107 41.2138 10.1137 40.7349 10.3799C40.2572 10.6451 39.8847 11.0292 39.6195 11.5312C39.3532 12.0331 39.2206 12.6467 39.2206 13.3707Z" fill="#CDCDDD"/>
<path d="M59.1353 23.0184C57.8988 23.0184 56.7813 22.6975 55.7815 22.0555C54.7818 21.4136 53.9925 20.4718 53.4127 19.231C52.8329 17.9903 52.5435 16.4718 52.5435 14.6754C52.5435 12.8791 52.8423 11.2911 53.4411 10.0546C54.0399 8.81808 54.8365 7.89202 55.831 7.27324C56.8254 6.65551 57.922 6.34612 59.1196 6.34612C60.0372 6.34612 60.8002 6.50081 61.4084 6.80915C62.0167 7.11854 62.5092 7.49949 62.8859 7.95305C63.2626 8.40661 63.5426 8.84649 63.7257 9.27164H63.8709V1.16016H68.216V22.7438H63.9425V20.1508H63.7246C63.531 20.5854 63.2437 21.0221 62.8628 21.462C62.4807 21.9019 61.9861 22.2713 61.3779 22.5701C60.7696 22.869 60.0214 23.0195 59.1332 23.0195L59.1353 23.0184ZM60.4823 19.5268C61.2158 19.5268 61.8441 19.3237 62.366 18.9185C62.888 18.5133 63.2837 17.9461 63.5541 17.2169C63.8246 16.4876 63.9593 15.6362 63.9593 14.6607C63.9593 13.6852 63.8267 12.8233 63.5605 12.1046C63.2953 11.3848 62.9017 10.8249 62.3797 10.424C61.8578 10.023 61.2253 9.82307 60.4823 9.82307C59.7394 9.82307 59.0796 10.0304 58.5629 10.4461C58.0462 10.8617 57.6579 11.4311 57.3969 12.1551C57.1359 12.8791 57.0054 13.7146 57.0054 14.6607C57.0054 15.6068 57.138 16.4476 57.4042 17.1811C57.6694 17.9156 58.0609 18.4902 58.5776 18.9048C59.0943 19.3205 59.7289 19.5278 60.4823 19.5278V19.5268Z" fill="#CDCDDD"/>
<path d="M87.8393 1.16016V22.7438H83.4941V1.16016H87.8393Z" fill="#CDCDDD"/>
<path d="M98.6574 23.0617C97.0347 23.0617 95.6298 22.7113 94.4428 22.0115C93.2547 21.3117 92.3402 20.3362 91.6983 19.086C91.0563 17.8358 90.7354 16.3793 90.7354 14.7187C90.7354 13.0581 91.0563 11.5733 91.6983 10.322C92.3402 9.07184 93.2557 8.09632 94.4428 7.39546C95.6309 6.69565 97.0358 6.34521 98.6574 6.34521C100.279 6.34521 101.697 6.69565 102.879 7.39546C104.062 8.09527 104.975 9.07079 105.617 10.322C106.259 11.5722 106.579 13.0381 106.579 14.7187C106.579 16.3993 106.259 17.8358 105.617 19.086C104.975 20.3362 104.061 21.3117 102.879 22.0115C101.697 22.7113 100.289 23.0617 98.6574 23.0617ZM98.6574 19.6437C99.4298 19.6437 100.077 19.429 100.599 18.9986C101.121 18.5693 101.511 17.98 101.772 17.2317C102.033 16.4835 102.164 15.6406 102.164 14.704C102.164 13.7674 102.033 12.8982 101.772 12.1542C101.511 11.4112 101.121 10.8261 100.599 10.401C100.077 9.97581 99.4309 9.76324 98.6574 9.76324C97.8839 9.76324 97.2399 9.97581 96.7232 10.401C96.2065 10.8261 95.8182 11.4102 95.5572 12.1542C95.2962 12.8982 95.1657 13.7474 95.1657 14.704C95.1657 15.6606 95.2962 16.4835 95.5572 17.2317C95.8182 17.98 96.2065 18.5693 96.7232 18.9986C97.2399 19.428 97.8839 19.6437 98.6574 19.6437Z" fill="#CDCDDD"/>
<path d="M22.6907 8.82974C22.2413 8.01417 21.6278 7.38802 20.8512 6.9534C20.0735 6.51879 19.1874 6.302 18.1929 6.302C17.3721 6.302 16.5871 6.46406 15.8388 6.78713C15.0906 7.11126 14.4434 7.60796 13.8983 8.27936C13.5226 8.74134 13.2206 9.29172 12.9891 9.92628C12.6597 8.835 12.2114 7.99523 11.6463 7.41012C10.9318 6.67138 9.98991 6.302 8.82181 6.302C8.0978 6.302 7.40746 6.45144 6.7508 6.75135C6.09413 7.05127 5.52166 7.51431 5.03442 8.1415C4.69872 8.57297 4.4209 9.09388 4.19781 9.69898L4.02733 6.54825H0V22.7428H4.23674C3.87158 22.1261 2.77293 19.9804 2.50458 16.092C2.50353 16.072 2.50248 16.0509 2.50037 16.0299C2.4909 15.8889 2.48248 15.7468 2.47512 15.6005C2.47301 15.5553 2.47091 15.509 2.46985 15.4627C2.44144 14.8155 2.43618 14.1262 2.46038 13.3885C2.46038 13.3885 2.46249 13.418 2.46775 13.4706C2.46985 13.4285 2.46985 13.3874 2.47196 13.3443C2.47196 13.3443 3.08548 16.8181 3.72109 18.6587C4.11046 19.7699 4.27884 20.7897 4.34513 21.5579V12.9497C4.34513 12.3025 4.463 11.7542 4.69977 11.3059C4.93655 10.8566 5.25962 10.5166 5.67004 10.2851C6.08045 10.0536 6.54138 9.93786 7.05387 9.93786C7.79788 9.93786 8.40298 10.1725 8.87127 10.6408C9.33957 11.1091 9.57424 11.7395 9.57424 12.5308V22.7428H13.7752V12.7771C13.7752 12.2078 13.8836 11.71 14.1014 11.2849C14.3182 10.8597 14.6276 10.5293 15.0285 10.2925C15.4295 10.0557 15.8999 9.93786 16.4408 9.93786C17.1648 9.93786 17.7762 10.1599 18.2729 10.604C18.7707 11.0481 19.019 11.729 19.019 12.6466V22.7428H23.3642V11.8205C23.3642 10.6429 23.14 9.64531 22.6907 8.82974Z" fill="#CDCDDD"/>
<path d="M2.50565 16.0931C2.50436 16.0727 2.50307 16.0512 2.50049 16.0298C2.50178 16.0512 2.50307 16.0727 2.50565 16.0931Z" fill="#CDCDDD"/>
<path d="M2.50565 16.0931C2.50436 16.0727 2.50307 16.0512 2.50049 16.0298C2.50178 16.0512 2.50307 16.0727 2.50565 16.0931Z" fill="#CDCDDD"/>
<path d="M2.47711 15.6003C2.47455 15.5551 2.47198 15.5089 2.4707 15.4626C2.47326 15.5089 2.47455 15.5551 2.47711 15.6003Z" fill="#CDCDDD"/>
<path d="M2.47711 15.6003C2.47455 15.5551 2.47198 15.5089 2.4707 15.4626C2.47326 15.5089 2.47455 15.5551 2.47711 15.6003Z" fill="#CDCDDD"/>
<path d="M77.4273 5.44757C77.4273 4.87825 77.5651 4.43626 77.8398 4.12266C78.1155 3.80906 78.5807 3.65226 79.2373 3.65226C79.5267 3.65226 79.7951 3.67647 80.0413 3.72487C80.2876 3.77328 80.5022 3.82169 80.6853 3.8701L81.4672 0.596249C81.2063 0.519427 80.7937 0.424716 80.2286 0.31422C79.6635 0.203724 79.0384 0.147949 78.3523 0.147949C77.3484 0.147949 76.4496 0.338424 75.6583 0.720426C74.8659 1.10243 74.2408 1.67385 73.7819 2.4368C73.3231 3.19975 73.0937 4.15528 73.0937 5.30445V6.55042H70.2397V9.86742H73.0937V19.4459C73.1853 18.7776 73.3231 18.1199 73.4936 17.4832C73.521 17.3791 73.5504 17.2759 73.5799 17.1728C73.5894 17.1402 73.5988 17.1086 73.6083 17.076C73.6241 17.0213 73.6399 16.9665 73.6567 16.9118C74.7343 13.3507 76.7054 10.5756 76.7054 10.5756C76.7054 10.5756 76.7001 10.5883 76.6917 10.6104C76.6959 10.6051 76.698 10.6009 76.698 10.6009C76.698 10.6009 75.9245 12.2299 75.854 16.573C75.8046 19.6616 73.1221 21.6337 73.159 22.7439H77.4262V9.86637H80.8158V6.54937H77.4262V5.44862L77.4273 5.44757Z" fill="#CDCDDD"/>
<path d="M73.4956 17.4823C73.5279 17.3781 73.5627 17.275 73.5975 17.1719C73.5627 17.275 73.5291 17.3781 73.4956 17.4823Z" fill="#CDCDDD"/>
<path d="M73.4956 17.4823C73.5279 17.3781 73.5627 17.275 73.5975 17.1719C73.5627 17.275 73.5291 17.3781 73.4956 17.4823Z" fill="#CDCDDD"/>
<path d="M127.157 15.8921C128.535 12.7593 127.637 8.8172 127.189 7.35865L125.975 12.532C125.723 13.6327 125.465 14.8135 125.2 16.0731C125.021 16.9224 124.85 17.8263 124.687 18.7829C124.502 17.819 124.309 16.9097 124.107 16.0584C123.807 14.7977 123.536 13.6222 123.295 12.5309L121.847 6.54834H117.849L116.372 12.5309C116.111 13.6222 115.831 14.8029 115.532 16.0721C115.332 16.9203 115.143 17.8179 114.965 18.7629C114.798 17.7916 114.62 16.8792 114.431 16.0289C114.151 14.7682 113.89 13.6022 113.649 12.5309L112.245 6.54834H107.682L112.461 22.7429H116.879L118.676 16.4993C118.849 15.8816 119.023 15.1913 119.197 14.4283C119.371 13.6654 119.543 12.8908 119.712 12.1037C119.752 11.9153 119.792 11.7311 119.833 11.5491C119.873 11.7311 119.912 11.9153 119.952 12.1037C120.116 12.8908 120.286 13.6633 120.459 14.4209C120.633 15.1797 120.807 15.8721 120.981 16.4993L122.778 22.7429H127.136C127.005 22.2904 125.266 20.2046 127.163 15.8921H127.157Z" fill="#CDCDDD"/>
<path d="M128.575 14.2431C128.56 16.9171 128.098 19.3838 127.71 20.9949L132 6.54834H127.379L127.64 7.28077C128.56 9.27813 128.514 11.3923 128.567 13.5222C128.574 13.7632 128.576 14.0042 128.575 14.2431Z" fill="#CDCDDD"/>
<path d="M128.567 13.5222C128.575 13.7632 128.578 14.0042 128.576 14.2431C128.578 14.0042 128.575 13.7643 128.567 13.5222Z" fill="#CDCDDD"/>
<path d="M128.567 13.5222C128.575 13.7632 128.578 14.0042 128.576 14.2431C128.578 14.0042 128.575 13.7643 128.567 13.5222Z" fill="#CDCDDD"/>
<path d="M30.2582 8.7621C30.2582 8.7621 30.2759 8.75245 30.2923 8.74064C30.3088 8.72777 30.3189 8.71811 30.3164 8.71704C30.3139 8.71704 30.2987 8.72562 30.2822 8.7385C30.2658 8.7503 30.2557 8.76103 30.2582 8.7621Z" fill="#CDCDDD"/>
<path d="M27.7862 7.03654C28.0345 7.33014 28.3008 7.53325 28.6301 7.67742C28.7091 7.71214 28.7543 7.72582 28.9658 7.77423C29.0995 7.8058 29.2005 7.8258 29.1889 7.82054C29.1731 7.81212 29.1805 7.81107 29.2195 7.81422C29.2479 7.81738 29.2752 7.82264 29.2794 7.8279C29.2858 7.83316 29.2868 7.83211 29.2847 7.8258C29.2815 7.81738 29.2868 7.81527 29.2984 7.81738C29.3078 7.81948 29.3678 7.82159 29.431 7.82369C29.4952 7.8258 29.5583 7.83106 29.573 7.83737C29.592 7.84579 29.5951 7.84579 29.5836 7.83737C29.5699 7.8279 29.5741 7.82685 29.6057 7.82896C29.6267 7.82896 29.6478 7.83527 29.653 7.83948C29.6583 7.84474 29.6604 7.84369 29.6583 7.83737C29.6541 7.82475 29.7035 7.82369 29.7277 7.83737C29.7404 7.84369 29.7435 7.84369 29.7372 7.83737C29.7298 7.82896 29.7362 7.82685 29.7593 7.8279C29.7772 7.8279 29.7961 7.83211 29.8014 7.83737C29.8067 7.84264 29.8077 7.84158 29.8056 7.83316C29.8025 7.82369 29.8067 7.82264 29.8298 7.83316C29.8456 7.84053 29.854 7.84158 29.8488 7.83632C29.8424 7.83001 29.8824 7.82264 29.9498 7.81738C30.0098 7.81212 30.0655 7.80686 30.0729 7.8058C30.0855 7.8058 30.0845 7.8058 30.0719 7.81107C30.0634 7.81422 30.0613 7.81843 30.0655 7.81948C30.0771 7.82159 30.1066 7.81001 30.0961 7.80791C30.0918 7.80791 30.1139 7.79844 30.1466 7.78897L30.1708 7.77949V7.77634H30.1697C30.1613 7.7795 30.2223 7.8037 30.1697 7.77634C30.1655 7.77318 30.1771 7.77318 30.1697 7.77634V7.78265C30.1918 7.75424 30.1581 7.79739 30.1697 7.77634C30.0655 7.1744 30.1802 7.75424 30.1697 7.77634C30.155 7.84685 30.1718 7.78265 30.1697 7.77634L30.3149 7.71425C30.3149 7.71425 30.3455 7.70057 30.3465 7.69952C30.3265 7.70583 30.3476 7.69952 30.3465 7.69952C30.3423 7.69636 30.3676 7.6932 30.3465 7.69952C30.3528 7.70688 30.558 7.62375 30.5917 7.59744C30.6043 7.58797 30.5949 7.59113 30.5717 7.60375C30.5296 7.62585 30.6338 7.57534 30.597 7.59218C30.558 7.60796 30.4086 7.67847 30.5023 7.63111C30.5538 7.6048 30.6022 7.5785 30.6107 7.57218C30.6254 7.55955 30.638 7.55956 30.6359 7.56692L30.7106 7.51746C30.7801 7.47221 30.7906 7.46484 30.7895 7.47221C30.7895 7.47221 30.7538 7.49536 30.7127 7.52062L30.6359 7.56692C30.6359 7.56692 30.6328 7.57324 30.6275 7.57744C30.6201 7.58376 30.6601 7.56061 30.7159 7.52588C30.8095 7.468 30.8464 7.44274 30.8053 7.46379C30.778 7.47747 30.7927 7.45642 30.8211 7.43854C30.8706 7.41012 31.0263 7.28279 31.1095 7.20281C31.1537 7.15966 31.1947 7.12704 31.1979 7.12915C31.2021 7.13125 31.2042 7.12914 31.2021 7.12388C31.1968 7.10915 31.2378 7.06495 31.2473 7.07442C31.2526 7.07969 31.2536 7.07863 31.2515 7.07127C31.2494 7.06495 31.2694 7.03443 31.2947 7.00392C31.3936 6.88395 31.5188 6.684 31.5651 6.57245C31.5799 6.53878 31.5809 6.53667 31.583 6.55772C31.5851 6.57456 31.5862 6.57035 31.5883 6.54509C31.5904 6.52405 31.5999 6.49142 31.6093 6.47248C31.6188 6.45143 31.6441 6.37777 31.6662 6.30832C31.743 6.05891 31.7672 5.78109 31.7482 5.35699C31.7325 5.02971 31.6893 4.72348 31.6135 4.40778C31.4957 3.91318 31.3357 3.53012 31.08 3.12392C30.7938 2.6693 30.5075 2.35781 29.9824 1.92529C29.5836 1.59907 29.3173 1.40754 28.8196 1.09394C28.3649 0.806649 28.2166 0.702467 27.903 0.452009C27.521 0.146828 27.2831 -0.0236519 27.2768 0.00265674C27.2768 0.00476144 27.2863 0.0405412 27.301 0.0826351C27.3915 0.363611 27.4641 0.785602 27.4747 1.07815C27.481 1.30125 27.4736 1.38333 27.421 1.61169C27.38 1.7948 27.3621 1.85479 27.2789 2.09262C27.1484 2.4662 27.1263 2.53671 27.0642 2.78611C26.8969 3.45225 26.8717 4.17731 26.9864 5.02971C27.1 5.87054 27.3673 6.53773 27.7904 7.03759L27.7862 7.03654ZM27.4957 0.313099C27.4957 0.313099 28.406 1.61906 29.0753 3.39332C29.7446 5.16862 30.98 8.00259 30.7464 8.91182L30.216 8.78869C30.2434 8.59401 30.2192 7.65848 29.9477 6.61665C29.6741 5.57273 29.3415 4.65297 28.809 3.41015C28.2766 2.16839 27.4957 0.313099 27.4957 0.313099Z" fill="#CDCDDD"/>
</svg>
