<svg viewBox="0 0 86 89" fill="none" xmlns="http://www.w3.org/2000/svg">
<path d="M84.695 56.3747C84.3625 55.7719 83.9094 54.7138 83.1784 53.6993C82.4583 52.668 81.5539 51.188 80.3665 50.0185C79.1865 48.8121 77.7666 47.5591 76.1148 46.3068C74.4709 45.1434 72.6341 44.1567 70.6068 43.1894C68.5775 42.2204 66.4657 41.659 64.2011 41.0832C61.949 40.5662 59.6845 40.3686 57.3426 40.2657C55.0487 40.2582 52.7351 40.4442 50.4712 40.7982C48.2589 41.2586 46.0198 41.7677 43.9632 42.5827C41.8841 43.3688 39.8978 44.2979 38.0906 45.4407C34.4295 47.6323 31.4046 50.5095 29.082 53.3779C27.9329 54.8591 26.9503 56.2996 26.1472 57.7161C25.3298 59.0934 24.7358 60.514 24.2472 61.6487C24.0017 62.1744 23.8132 62.7048 23.6533 63.19C24.2794 62.8861 24.9527 62.5707 25.6883 62.2373C29.3389 60.5814 34.3105 58.6165 39.449 57.1772C42.0155 56.4502 44.6289 55.9091 47.0962 55.499C48.3415 55.3517 49.5397 55.2159 50.68 55.0836C51.8257 55.035 52.9126 54.9926 53.9073 54.9489C54.9084 54.9963 55.8289 55.0476 56.6432 55.0882C57.453 55.0856 58.1562 55.2785 58.7337 55.3562C59.885 55.5449 60.5411 55.6499 60.5411 55.6499C60.5411 55.6499 59.8799 55.596 58.7203 55.4998C58.141 55.4735 57.4453 55.34 56.6378 55.4044C55.8369 55.4315 54.9352 55.4568 53.9463 55.4873C52.9679 55.6079 51.9116 55.7391 50.7908 55.8752C49.6884 56.0955 48.5263 56.3291 47.3242 56.5679C44.9448 57.1688 42.4379 57.9072 39.9912 58.8245C35.0932 60.6306 30.4044 62.9512 26.986 64.8507C26.4557 65.1455 25.9712 65.422 25.5174 65.688C21.5031 67.8139 18.0663 70.6014 15.2133 73.4527C16.6756 69.5714 17.8526 65.129 18.1938 60.3831C18.2546 59.8421 21.1567 60.4805 21.1315 61.2002C21.5003 60.8633 21.8992 60.4735 22.2677 60.0392C23.0843 59.1332 24.1134 58.0171 25.0243 56.6985C25.9667 55.3871 26.869 53.8795 27.7382 52.2088C29.3832 48.873 30.7699 44.8597 31.2958 40.5016C31.6094 38.331 31.669 36.0613 31.5633 33.7688C31.4912 31.4806 31.0757 29.1361 30.6309 26.8361C30.0685 24.527 29.3367 22.2392 28.4498 20.0421C27.4506 17.8349 26.3985 15.7427 25.0683 13.7809C23.6814 11.8327 22.369 10.0235 20.7223 8.45244C19.0809 6.87898 17.4978 5.50554 15.8274 4.37766C14.0703 3.2745 12.4111 2.39541 10.8825 1.73033C9.38612 1.04699 7.72493 0.74438 6.53449 0.457572C5.34808 0.152667 4.23475 0.126716 3.56968 0.0446984C2.87848 -0.0139519 2.47159 0.00210997 2.47159 0.00210997C2.47159 0.00210997 2.39768 0.404532 2.25484 1.16272C2.1785 1.85446 1.90986 2.96499 1.80285 4.1088C1.64935 5.23301 1.45505 6.59643 1.22853 8.16219C0.992034 9.66881 0.791057 11.2378 0.631844 12.8124C0.459333 14.4097 0.228496 16.1277 0.160158 17.7498C0.0793946 19.3864 -0.0577987 21.16 0.0263547 22.8056C0.0652861 26.2134 0.490633 29.6558 1.29277 33.1135C1.64619 34.8732 2.2317 36.5601 2.77047 38.3039C3.34066 40.0277 4.0736 41.7157 4.82563 43.3937C5.63515 45.0541 6.46341 46.6963 7.42072 48.2611C8.38686 49.8332 9.33293 51.349 10.37 52.7714C11.3872 54.1919 12.4334 55.5249 13.4364 56.719C14.1076 57.5526 14.8048 58.2983 15.4553 58.9915C14.8065 73.6643 5.24086 85.9606 5.12073 86.1144L5.4831 86.4214C5.38633 86.6072 5.30636 86.7527 5.27958 86.8071L7.17165 87.8569L7.27162 87.9404C7.27535 87.9356 7.28603 87.9219 7.28763 87.9199L7.73211 88.1678C7.82271 87.9871 15.0355 74.0644 27.7972 67.7717C28.6723 68.1272 29.5976 68.5089 30.5988 68.8309C32.0499 69.3262 33.6338 69.8184 35.2865 70.2426C36.9468 70.6902 38.6605 71.0118 40.4246 71.328C42.1843 71.6383 43.9637 71.8025 45.7475 71.9308C47.5291 72.003 49.3065 72.0605 51.0586 71.9375C52.8157 71.7793 54.5355 71.6905 56.2357 71.3492C59.613 70.7852 62.832 69.8586 65.8671 68.5821C67.3564 68.0275 68.8812 67.2089 70.297 66.4982C71.7148 65.8049 73.1478 64.921 74.4944 64.1378C75.8285 63.3791 77.1428 62.5768 78.39 61.7683C79.6903 60.9509 80.8258 60.2365 81.7632 59.6548C82.738 59.1101 83.6193 58.4263 84.2027 58.0822C84.8175 57.6547 85.1472 57.4297 85.1472 57.4297C85.1472 57.4297 85.0136 57.0211 84.695 56.3747ZM11.2572 23.9009L17.7042 29.2667L14.2367 14.3966L18.0498 17.5795L23.4312 38.6479L17.0346 33.3083L19.003 50.1794L11.2572 23.9009Z" fill="#9999A0"/>
</svg>
