<svg width="32" height="32" viewBox="0 0 32 32" fill="none" xmlns="http://www.w3.org/2000/svg">
<path d="M16.0317 0H15.9589C7.14503 0 0 7.14713 0 15.9636V16.0364C0 24.8529 7.14503 32 15.9589 32H16.0317C24.8456 32 31.9906 24.8529 31.9906 16.0364V15.9636C31.9906 7.14713 24.8456 0 16.0317 0Z" fill="#00E510"/>
<path d="M19.1128 20.68C15.0186 20.68 11.6876 17.3469 11.6865 13.2515C11.6876 12.2133 12.5327 11.3691 13.5683 11.3691C13.6748 11.3691 13.7801 11.3781 13.881 11.396C14.1029 11.433 14.3136 11.5082 14.5075 11.6214C14.5356 11.6382 14.5546 11.6651 14.5591 11.6965L14.9917 14.4242C14.9973 14.4567 14.9872 14.4881 14.9659 14.5116C14.7272 14.7762 14.4224 14.9668 14.0828 15.0621L13.9191 15.1081L13.9808 15.2661C14.5389 16.6877 15.6754 17.8234 17.0977 18.384L17.2557 18.4467L17.3017 18.2831C17.3969 17.9434 17.5875 17.6384 17.852 17.3996C17.871 17.3817 17.8968 17.3727 17.9226 17.3727C17.9282 17.3727 17.9338 17.3727 17.9405 17.3738L20.6674 17.8066C20.6999 17.8122 20.7268 17.8301 20.7436 17.8582C20.8557 18.0521 20.9308 18.264 20.9689 18.486C20.9868 18.5846 20.9947 18.6889 20.9947 18.7977C20.9947 19.8347 20.1507 20.6789 19.1128 20.68Z" fill="#EFEFF0"/>
<path d="M26.3733 15.1019C26.1525 12.6063 25.0093 10.2912 23.1544 8.58369C21.2883 6.86614 18.8674 5.91992 16.3355 5.91992C10.7787 5.91992 6.25742 10.4425 6.25742 16.001C6.25742 17.8665 6.77185 19.6839 7.74581 21.2669L5.57373 26.0765L12.5282 25.3354C13.7375 25.8309 15.0175 26.0821 16.3344 26.0821C16.6807 26.0821 17.036 26.0641 17.3924 26.0271C17.7062 25.9935 18.0234 25.9442 18.335 25.8814C22.9885 24.9408 26.3856 20.8095 26.4125 16.0548V16.001C26.4125 15.6983 26.3991 15.3956 26.3722 15.1019H26.3733ZM12.7961 23.2243L8.94843 23.6347L10.0972 21.0886L9.86747 20.7803C9.85065 20.7579 9.83385 20.7355 9.81479 20.7097C8.81729 19.3318 8.29051 17.704 8.29051 16.0021C8.29051 11.5647 11.8994 7.95475 16.3355 7.95475C20.4914 7.95475 24.014 11.1981 24.3536 15.3384C24.3716 15.5604 24.3816 15.7835 24.3816 16.0032C24.3816 16.066 24.3805 16.1277 24.3794 16.1938C24.2942 19.9058 21.7018 23.0584 18.075 23.8611C17.7981 23.9228 17.5146 23.9699 17.2321 24.0002C16.9385 24.0338 16.637 24.0506 16.3378 24.0506C15.2719 24.0506 14.2363 23.8443 13.2578 23.4362C13.1491 23.3925 13.0426 23.3454 12.9429 23.2972L12.7972 23.2266L12.7961 23.2243Z" fill="#EFEFF0"/>
</svg>
