<svg viewBox="0 0 44 44" fill="none" xmlns="http://www.w3.org/2000/svg">
<rect width="44" height="44" rx="22" fill="#FF0000"/>
<path d="M37.0682 14.4435C36.7058 13.0971 35.6443 12.0356 34.2979 11.6732C31.8383 11 21.9998 11 21.9998 11C21.9998 11 12.1614 11 9.70176 11.6473C8.38133 12.0097 7.29392 13.0971 6.93145 14.4435C6.28418 16.9031 6.28418 22.0036 6.28418 22.0036C6.28418 22.0036 6.28418 27.1299 6.93145 29.5636C7.29392 30.91 8.35544 31.9715 9.70176 32.334C12.1873 33.0071 21.9998 33.0071 21.9998 33.0071C21.9998 33.0071 31.8383 33.0071 34.2979 32.3598C35.6443 31.9974 36.7058 30.9359 37.0682 29.5895C37.7155 27.1299 37.7155 22.0294 37.7155 22.0294C37.7155 22.0294 37.7414 16.9031 37.0682 14.4435Z" fill="white"/>
<path d="M18.8672 26.7152L27.0487 22.0031L18.8672 17.291V26.7152Z" fill="#FF0000"/>
</svg>
